<?xml version="1.0" encoding="UTF-8" standalone="no"?><!DOCTYPE svg PUBLIC "-//W3C//DTD SVG 1.1//EN" "http://www.w3.org/Graphics/SVG/1.1/DTD/svg11.dtd"><svg width="100%" height="100%" viewBox="0 0 298 144" version="1.1" xmlns="http://www.w3.org/2000/svg" xmlns:xlink="http://www.w3.org/1999/xlink" xml:space="preserve" xmlns:serif="http://www.serif.com/" style="fill-rule:evenodd;clip-rule:evenodd;stroke-linejoin:round;stroke-miterlimit:1.41421;"><g id="plate"><ellipse cx="143.965" cy="105.846" rx="140.212" ry="34.116" style="fill:#e1d7cd;"/><ellipse cx="143.92" cy="103.693" rx="140.212" ry="36.269" style="fill:#e1d7cd;"/><ellipse cx="143.92" cy="100.529" rx="140.212" ry="34.116" style="fill:#cfa5a9;"/><ellipse cx="146.677" cy="98.818" rx="113.886" ry="23.219" style="fill:#e1d7cd;"/></g><g><path d="M171.392,85.455c-0.218,0.683 -0.645,1.322 -1.272,1.824c-1.7,1.362 -4.229,1.211 -5.645,-0.337c0.376,2.022 -1.088,3.993 -3.268,4.398c-0.999,0.186 -1.976,0.011 -2.778,-0.427c-1.087,0.701 -2.361,1.219 -3.762,1.479c-3.108,0.578 -6.091,-0.249 -8.038,-1.973c-0.08,0.05 -0.163,0.099 -0.248,0.147c-1.932,1.076 -4.606,1.21 -6.155,0.346c-0.076,0.036 -0.153,0.072 -0.23,0.107c0.023,1.386 -1.729,2.799 -4.094,3.239c-2.517,0.468 -4.782,-0.343 -5.055,-1.809c-1.022,1.504 -3.733,2.459 -6.05,2.131c-1.42,-0.201 -2.364,-0.838 -2.647,-1.647c-1.153,0.102 -2.298,0.189 -3.436,0.257c-0.689,3.035 -3.195,5.547 -6.545,6.17c-4.442,0.826 -8.695,-1.981 -9.492,-6.264c-1.531,4.123 -6.22,6.312 -10.466,4.886c-4.149,-1.395 -6.348,-5.731 -5.016,-9.776c-0.049,-0.027 -0.099,-0.055 -0.148,-0.083c-3.444,2.643 -8.434,2.227 -11.277,-0.992c-2.424,-2.746 -2.527,-6.671 -0.5,-9.557c-0.353,-0.492 -0.693,-0.993 -1.021,-1.502c-3.441,-0.388 -6.352,-2.888 -6.997,-6.356c-0.454,-2.439 0.311,-4.835 1.874,-6.598c-0.092,-0.5 -0.172,-1.004 -0.242,-1.51c-1.39,-1 -2.381,-2.434 -2.698,-4.139c-0.459,-2.468 0.605,-4.914 2.59,-6.579c0.048,-0.163 0.103,-0.325 0.163,-0.487c0.096,-0.259 0.205,-0.511 0.325,-0.755c0.164,-0.816 0.355,-1.62 0.572,-2.413c-2.024,-1.846 -2.758,-4.658 -1.623,-7.328c1.244,-2.925 4.367,-4.826 7.674,-4.963c0.471,-0.622 0.961,-1.229 1.469,-1.819c-1.066,-2.707 -0.144,-5.914 2.576,-7.979c2.67,-2.027 6.307,-2.371 9.147,-1.111c0.803,-0.399 1.622,-0.769 2.455,-1.111c0.719,-2.795 3.283,-5.151 6.668,-5.781c3.378,-0.628 6.611,0.642 8.291,2.983c0.9,0.018 1.806,0.069 2.715,0.153c2.198,-2.186 5.706,-3.166 8.919,-2.237c2.553,0.738 4.338,2.513 4.995,4.634c4.444,0.877 9.024,1.85 13.705,2.902c1.297,-1.168 3.008,-2.035 4.966,-2.399c4.869,-0.905 9.431,1.636 10.182,5.673c1.784,-3.949 6.96,-6.152 11.551,-4.919c4.592,1.234 6.872,5.442 5.087,9.39c3.841,-2.803 9.464,-2.607 12.548,0.435c0.418,0.413 0.768,0.856 1.051,1.322c0.242,-0.164 0.566,-0.304 0.976,-0.415c2.705,-0.737 8.111,0.045 12.066,1.746c-2.072,-1.842 -0.248,-3.165 4.072,-2.953c4.319,0.212 9.509,1.879 11.582,3.721c0.365,-1.489 4.54,-1.801 9.317,-0.697c4.778,1.104 8.36,3.21 7.995,4.698c2.705,-0.737 8.112,0.045 12.067,1.746c3.954,1.701 4.969,3.68 2.265,4.417c4.32,0.212 9.509,1.879 11.582,3.721c2.073,1.841 0.248,3.164 -4.071,2.952c4.777,1.104 8.359,3.21 7.995,4.698c-0.083,0.336 -0.359,0.612 -0.793,0.826c5.361,1.648 10.383,3.187 14.984,4.576c-6.635,-0.887 -13.563,-0.977 -20.703,-0.472c-0.16,0.068 -0.34,0.129 -0.54,0.184c-0.435,0.119 -0.94,0.198 -1.497,0.24c-1.219,0.304 -2.538,0.591 -3.919,0.847c5.778,-0.498 7.955,0.377 4.858,1.952c-3.096,1.575 -10.301,3.257 -16.079,3.756c3.455,0.356 1.738,1.954 -3.832,3.567c-5.571,1.613 -12.899,2.633 -16.355,2.277c0.207,1.115 -4.944,3.01 -11.496,4.229c-6.552,1.218 -12.04,1.303 -12.248,0.188c-3.096,1.575 -10.301,3.258 -16.079,3.756c-0.371,0.032 -0.726,0.058 -1.067,0.079c-0.61,0.308 -1.248,0.553 -1.9,0.736Z" style="fill:#feec97;"/><clipPath id="_clip1"><path d="M171.392,85.455c-0.218,0.683 -0.645,1.322 -1.272,1.824c-1.7,1.362 -4.229,1.211 -5.645,-0.337c0.376,2.022 -1.088,3.993 -3.268,4.398c-0.999,0.186 -1.976,0.011 -2.778,-0.427c-1.087,0.701 -2.361,1.219 -3.762,1.479c-3.108,0.578 -6.091,-0.249 -8.038,-1.973c-0.08,0.05 -0.163,0.099 -0.248,0.147c-1.932,1.076 -4.606,1.21 -6.155,0.346c-0.076,0.036 -0.153,0.072 -0.23,0.107c0.023,1.386 -1.729,2.799 -4.094,3.239c-2.517,0.468 -4.782,-0.343 -5.055,-1.809c-1.022,1.504 -3.733,2.459 -6.05,2.131c-1.42,-0.201 -2.364,-0.838 -2.647,-1.647c-1.153,0.102 -2.298,0.189 -3.436,0.257c-0.689,3.035 -3.195,5.547 -6.545,6.17c-4.442,0.826 -8.695,-1.981 -9.492,-6.264c-1.531,4.123 -6.22,6.312 -10.466,4.886c-4.149,-1.395 -6.348,-5.731 -5.016,-9.776c-0.049,-0.027 -0.099,-0.055 -0.148,-0.083c-3.444,2.643 -8.434,2.227 -11.277,-0.992c-2.424,-2.746 -2.527,-6.671 -0.5,-9.557c-0.353,-0.492 -0.693,-0.993 -1.021,-1.502c-3.441,-0.388 -6.352,-2.888 -6.997,-6.356c-0.454,-2.439 0.311,-4.835 1.874,-6.598c-0.092,-0.5 -0.172,-1.004 -0.242,-1.51c-1.39,-1 -2.381,-2.434 -2.698,-4.139c-0.459,-2.468 0.605,-4.914 2.59,-6.579c0.048,-0.163 0.103,-0.325 0.163,-0.487c0.096,-0.259 0.205,-0.511 0.325,-0.755c0.164,-0.816 0.355,-1.62 0.572,-2.413c-2.024,-1.846 -2.758,-4.658 -1.623,-7.328c1.244,-2.925 4.367,-4.826 7.674,-4.963c0.471,-0.622 0.961,-1.229 1.469,-1.819c-1.066,-2.707 -0.144,-5.914 2.576,-7.979c2.67,-2.027 6.307,-2.371 9.147,-1.111c0.803,-0.399 1.622,-0.769 2.455,-1.111c0.719,-2.795 3.283,-5.151 6.668,-5.781c3.378,-0.628 6.611,0.642 8.291,2.983c0.9,0.018 1.806,0.069 2.715,0.153c2.198,-2.186 5.706,-3.166 8.919,-2.237c2.553,0.738 4.338,2.513 4.995,4.634c4.444,0.877 9.024,1.85 13.705,2.902c1.297,-1.168 3.008,-2.035 4.966,-2.399c4.869,-0.905 9.431,1.636 10.182,5.673c1.784,-3.949 6.96,-6.152 11.551,-4.919c4.592,1.234 6.872,5.442 5.087,9.39c3.841,-2.803 9.464,-2.607 12.548,0.435c0.418,0.413 0.768,0.856 1.051,1.322c0.242,-0.164 0.566,-0.304 0.976,-0.415c2.705,-0.737 8.111,0.045 12.066,1.746c-2.072,-1.842 -0.248,-3.165 4.072,-2.953c4.319,0.212 9.509,1.879 11.582,3.721c0.365,-1.489 4.54,-1.801 9.317,-0.697c4.778,1.104 8.36,3.21 7.995,4.698c2.705,-0.737 8.112,0.045 12.067,1.746c3.954,1.701 4.969,3.68 2.265,4.417c4.32,0.212 9.509,1.879 11.582,3.721c2.073,1.841 0.248,3.164 -4.071,2.952c4.777,1.104 8.359,3.21 7.995,4.698c-0.083,0.336 -0.359,0.612 -0.793,0.826c5.361,1.648 10.383,3.187 14.984,4.576c-6.635,-0.887 -13.563,-0.977 -20.703,-0.472c-0.16,0.068 -0.34,0.129 -0.54,0.184c-0.435,0.119 -0.94,0.198 -1.497,0.24c-1.219,0.304 -2.538,0.591 -3.919,0.847c5.778,-0.498 7.955,0.377 4.858,1.952c-3.096,1.575 -10.301,3.257 -16.079,3.756c3.455,0.356 1.738,1.954 -3.832,3.567c-5.571,1.613 -12.899,2.633 -16.355,2.277c0.207,1.115 -4.944,3.01 -11.496,4.229c-6.552,1.218 -12.04,1.303 -12.248,0.188c-3.096,1.575 -10.301,3.258 -16.079,3.756c-0.371,0.032 -0.726,0.058 -1.067,0.079c-0.61,0.308 -1.248,0.553 -1.9,0.736Z"/></clipPath><g clip-path="url(#_clip1)"><path d="M152.87,105.014c-0.219,0.684 -0.646,1.322 -1.272,1.824c-1.7,1.363 -4.23,1.212 -5.645,-0.337c0.376,2.022 -1.089,3.993 -3.269,4.399c-0.999,0.186 -1.975,0.011 -2.777,-0.428c-1.087,0.701 -2.361,1.219 -3.762,1.48c-3.108,0.578 -6.092,-0.249 -8.038,-1.973c-0.08,0.049 -0.163,0.098 -0.249,0.146c-1.932,1.077 -4.605,1.21 -6.154,0.346c-0.077,0.037 -0.153,0.073 -0.23,0.108c0.022,1.385 -1.729,2.798 -4.094,3.238c-2.517,0.468 -4.782,-0.342 -5.055,-1.809c-1.023,1.504 -3.733,2.459 -6.05,2.132c-1.42,-0.201 -2.365,-0.838 -2.647,-1.648c-1.153,0.103 -2.299,0.189 -3.437,0.258c-0.688,3.034 -3.195,5.546 -6.544,6.169c-4.442,0.827 -8.696,-1.98 -9.492,-6.264c-1.531,4.123 -6.221,6.312 -10.466,4.886c-4.15,-1.394 -6.349,-5.73 -5.016,-9.775c-0.05,-0.028 -0.099,-0.055 -0.148,-0.083c-3.444,2.642 -8.434,2.227 -11.277,-0.992c-2.425,-2.746 -2.527,-6.671 -0.501,-9.557c-0.352,-0.493 -0.693,-0.993 -1.02,-1.502c-3.442,-0.388 -6.352,-2.888 -6.997,-6.356c-0.454,-2.44 0.31,-4.836 1.873,-6.599c-0.091,-0.5 -0.172,-1.003 -0.241,-1.51c-1.39,-1 -2.381,-2.433 -2.699,-4.138c-0.459,-2.469 0.605,-4.915 2.59,-6.579c0.049,-0.163 0.103,-0.326 0.163,-0.487c0.097,-0.26 0.206,-0.512 0.326,-0.755c0.164,-0.816 0.355,-1.621 0.571,-2.414c-2.024,-1.846 -2.758,-4.657 -1.622,-7.328c1.244,-2.924 4.367,-4.826 7.674,-4.963c0.471,-0.622 0.96,-1.228 1.468,-1.818c-1.066,-2.707 -0.144,-5.914 2.576,-7.979c2.671,-2.027 6.308,-2.371 9.147,-1.111c0.804,-0.399 1.623,-0.77 2.455,-1.112c0.72,-2.795 3.283,-5.151 6.668,-5.78c3.379,-0.629 6.612,0.642 8.291,2.983c0.901,0.018 1.807,0.068 2.715,0.152c2.198,-2.186 5.706,-3.166 8.92,-2.237c2.552,0.738 4.338,2.513 4.995,4.635c4.444,0.876 9.023,1.849 13.705,2.902c1.297,-1.169 3.008,-2.035 4.966,-2.399c4.868,-0.906 9.43,1.636 10.181,5.672c1.784,-3.948 6.96,-6.152 11.552,-4.918c4.592,1.234 6.871,5.441 5.087,9.389c3.841,-2.802 9.463,-2.607 12.548,0.436c0.418,0.412 0.768,0.855 1.051,1.321c0.242,-0.163 0.566,-0.303 0.976,-0.415c2.704,-0.737 8.111,0.045 12.066,1.746c-2.073,-1.842 -0.248,-3.164 4.071,-2.953c4.32,0.212 9.51,1.88 11.583,3.721c0.365,-1.489 4.539,-1.801 9.317,-0.697c4.777,1.105 8.36,3.21 7.995,4.699c2.704,-0.737 8.111,0.045 12.066,1.746c3.955,1.7 4.97,3.679 2.265,4.417c4.32,0.212 9.51,1.879 11.583,3.72c2.072,1.842 0.248,3.165 -4.072,2.953c4.778,1.104 8.36,3.209 7.995,4.698c-0.082,0.336 -0.359,0.612 -0.792,0.825c5.36,1.649 10.383,3.188 14.983,4.577c-6.635,-0.888 -13.563,-0.978 -20.702,-0.472c-0.16,0.067 -0.34,0.129 -0.541,0.183c-0.434,0.119 -0.939,0.198 -1.496,0.241c-1.22,0.303 -2.539,0.59 -3.92,0.847c5.778,-0.498 7.955,0.376 4.859,1.951c-3.097,1.575 -10.302,3.258 -16.08,3.756c3.456,0.356 1.739,1.955 -3.832,3.568c-5.571,1.612 -12.899,2.633 -16.355,2.277c0.208,1.115 -4.943,3.009 -11.496,4.228c-6.552,1.219 -12.04,1.303 -12.247,0.188c-3.097,1.575 -10.302,3.258 -16.08,3.756c-0.37,0.032 -0.726,0.058 -1.066,0.079c-0.61,0.309 -1.248,0.554 -1.9,0.736Z" style="fill:#eedc88;fill-opacity:0.67451;"/></g><g><path d="M253.43,59.77l37.253,1.246l-6.178,19.337l-31.075,-20.583Z" style="fill:#fecf97;"/><clipPath id="_clip2"><path d="M253.43,59.77l37.253,1.246l-6.178,19.337l-31.075,-20.583Z"/></clipPath><g clip-path="url(#_clip2)"><path d="M251.382,60.078l45.978,15.232l-10.28,17.504l-35.698,-32.736Z" style="fill:#fa9d62;"/></g><path d="M253.821,62.254l31.864,-19.339l5.409,19.565l-37.273,-0.226Z" style="fill:#fecf97;"/><clipPath id="_clip3"><path d="M253.821,62.254l31.864,-19.339l5.409,19.565l-37.273,-0.226Z"/></clipPath><g clip-path="url(#_clip3)"><path d="M252.276,63.632l46.82,-12.407l0.972,20.276l-47.792,-7.869Z" style="fill:#fa9d62;"/></g></g></g><g><path d="M150.408,109.023c-0.218,0.684 -0.645,1.322 -1.272,1.824c-1.7,1.363 -4.229,1.211 -5.645,-0.337c0.376,2.022 -1.088,3.993 -3.268,4.399c-0.999,0.185 -1.976,0.01 -2.778,-0.428c-1.087,0.701 -2.361,1.219 -3.762,1.479c-3.108,0.579 -6.092,-0.248 -8.038,-1.973c-0.08,0.05 -0.163,0.099 -0.248,0.147c-1.933,1.076 -4.606,1.21 -6.155,0.346c-0.076,0.037 -0.153,0.073 -0.23,0.108c0.023,1.385 -1.729,2.798 -4.094,3.238c-2.517,0.468 -4.782,-0.343 -5.055,-1.809c-1.022,1.504 -3.733,2.459 -6.05,2.131c-1.42,-0.2 -2.364,-0.837 -2.647,-1.647c-1.153,0.103 -2.298,0.189 -3.436,0.258c-0.689,3.034 -3.196,5.546 -6.545,6.169c-4.442,0.827 -8.695,-1.98 -9.492,-6.264c-1.531,4.123 -6.221,6.312 -10.466,4.886c-4.15,-1.394 -6.349,-5.73 -5.016,-9.775c-0.049,-0.028 -0.099,-0.056 -0.148,-0.083c-3.444,2.642 -8.434,2.227 -11.277,-0.993c-2.424,-2.745 -2.527,-6.67 -0.501,-9.557c-0.352,-0.492 -0.692,-0.992 -1.02,-1.501c-3.442,-0.388 -6.352,-2.889 -6.997,-6.356c-0.454,-2.44 0.311,-4.836 1.873,-6.599c-0.091,-0.5 -0.171,-1.004 -0.241,-1.51c-1.39,-1 -2.381,-2.434 -2.698,-4.138c-0.46,-2.469 0.605,-4.915 2.589,-6.58c0.049,-0.162 0.104,-0.325 0.164,-0.487c0.096,-0.259 0.205,-0.511 0.325,-0.754c0.164,-0.816 0.355,-1.621 0.572,-2.414c-2.024,-1.846 -2.759,-4.658 -1.623,-7.328c1.244,-2.924 4.367,-4.826 7.674,-4.963c0.471,-0.622 0.961,-1.229 1.469,-1.818c-1.066,-2.708 -0.144,-5.915 2.576,-7.979c2.67,-2.027 6.307,-2.371 9.147,-1.112c0.803,-0.398 1.622,-0.769 2.454,-1.111c0.72,-2.795 3.283,-5.151 6.668,-5.781c3.379,-0.628 6.612,0.643 8.291,2.983c0.901,0.018 1.807,0.069 2.716,0.153c2.197,-2.186 5.706,-3.166 8.919,-2.237c2.553,0.738 4.338,2.513 4.995,4.634c4.444,0.877 9.024,1.85 13.705,2.902c1.297,-1.168 3.008,-2.034 4.966,-2.399c4.868,-0.905 9.431,1.636 10.181,5.673c1.784,-3.949 6.961,-6.152 11.552,-4.918c4.592,1.233 6.871,5.441 5.087,9.389c3.841,-2.802 9.464,-2.607 12.548,0.435c0.418,0.413 0.768,0.856 1.051,1.322c0.242,-0.163 0.566,-0.304 0.976,-0.415c2.704,-0.737 8.111,0.045 12.066,1.746c-2.073,-1.842 -0.248,-3.165 4.072,-2.953c4.319,0.212 9.509,1.879 11.582,3.721c0.365,-1.489 4.54,-1.801 9.317,-0.697c4.777,1.105 8.36,3.21 7.995,4.698c2.705,-0.737 8.111,0.046 12.066,1.746c3.955,1.701 4.97,3.68 2.266,4.417c4.319,0.212 9.509,1.88 11.582,3.721c2.073,1.841 0.248,3.164 -4.071,2.952c4.777,1.105 8.359,3.21 7.994,4.699c-0.082,0.336 -0.358,0.612 -0.792,0.825c5.361,1.648 10.383,3.187 14.984,4.577c-6.636,-0.888 -13.564,-0.978 -20.703,-0.472c-0.16,0.067 -0.34,0.129 -0.541,0.183c-0.434,0.119 -0.939,0.198 -1.496,0.24c-1.219,0.304 -2.538,0.591 -3.919,0.848c5.778,-0.498 7.955,0.376 4.858,1.951c-3.096,1.575 -10.301,3.258 -16.079,3.756c3.455,0.356 1.738,1.954 -3.833,3.567c-5.57,1.613 -12.899,2.634 -16.354,2.278c0.207,1.114 -4.944,3.009 -11.496,4.228c-6.553,1.219 -12.04,1.303 -12.248,0.188c-3.096,1.575 -10.301,3.258 -16.08,3.756c-0.37,0.032 -0.725,0.058 -1.066,0.079c-0.61,0.308 -1.248,0.554 -1.9,0.736Z" style="fill:#fff490;"/><g><path d="M232.445,83.338l37.253,1.247l-6.177,19.336l-31.076,-20.583Z" style="fill:#ffbb90;"/><clipPath id="_clip4"><path d="M232.445,83.338l37.253,1.247l-6.177,19.336l-31.076,-20.583Z"/></clipPath><g clip-path="url(#_clip4)"><path d="M230.398,83.646l45.978,15.232l-10.28,17.504l-35.698,-32.736Z" style="fill:#fa9d62;"/></g><path d="M232.837,85.822l31.864,-19.339l5.409,19.565l-37.273,-0.226Z" style="fill:#ffbb90;"/><clipPath id="_clip5"><path d="M232.837,85.822l31.864,-19.339l5.409,19.565l-37.273,-0.226Z"/></clipPath><g clip-path="url(#_clip5)"><path d="M231.292,87.2l46.819,-12.406l0.973,20.276l-47.792,-7.87Z" style="fill:#fa9d62;"/></g></g></g><g><g><ellipse cx="77.145" cy="99.598" rx="4.804" ry="4.472" style="fill:#383838;"/><ellipse cx="76.293" cy="100.936" rx="0.457" ry="0.514" style="fill:#d2d2d2;"/><circle cx="74.525" cy="98.288" r="1.31" style="fill:#dcdcdc;"/></g><g><ellipse cx="109.534" cy="99.293" rx="4.804" ry="4.472" style="fill:#383838;"/><ellipse cx="108.681" cy="100.631" rx="0.457" ry="0.514" style="fill:#d2d2d2;"/><circle cx="106.914" cy="97.983" r="1.31" style="fill:#dcdcdc;"/></g><path d="M90.025,100.504c0.731,1.191 1.943,1.905 3.242,1.909c1.298,0.004 2.515,-0.703 3.252,-1.89l-6.494,-0.019Z" style="fill:#4b4b4b;"/><ellipse cx="72.997" cy="105.649" rx="4.149" ry="1.579" style="fill:#fea9ce;"/><ellipse cx="113.683" cy="105.344" rx="4.149" ry="1.579" style="fill:#fea9ce;"/></g></svg>