<?xml version="1.0" encoding="UTF-8" standalone="no"?><!DOCTYPE svg PUBLIC "-//W3C//DTD SVG 1.1//EN" "http://www.w3.org/Graphics/SVG/1.1/DTD/svg11.dtd"><svg width="100%" height="100%" viewBox="0 0 288 125" version="1.1" xmlns="http://www.w3.org/2000/svg" xmlns:xlink="http://www.w3.org/1999/xlink" xml:space="preserve" xmlns:serif="http://www.serif.com/" style="fill-rule:evenodd;clip-rule:evenodd;stroke-linejoin:round;stroke-miterlimit:1.41421;"><g id="plate"><ellipse cx="142.965" cy="88.846" rx="140.212" ry="34.116" style="fill:#e1d7cd;"/><ellipse cx="142.92" cy="86.693" rx="140.212" ry="36.269" style="fill:#e1d7cd;"/><ellipse cx="142.92" cy="83.529" rx="140.212" ry="34.116" style="fill:#fbfcc2;"/><ellipse cx="145.677" cy="81.818" rx="113.886" ry="23.219" style="fill:#e1d7cd;"/></g><g id="yellow-sushi"><g id="sushi"><path d="M102.018,70.09l0,-41.041l87.82,0l0,41.066c0.005,0.035 0.007,0.071 0.007,0.106c0,0.036 -0.002,0.071 -0.007,0.106l0,0.105l-0.023,0c-0.859,3.032 -20.196,5.459 -43.889,5.459c-23.694,0 -43.03,-2.427 -43.89,-5.459l-0.018,0l0,-0.08c-0.008,-0.043 -0.012,-0.087 -0.012,-0.131c0,-0.044 0.004,-0.087 0.012,-0.131Z" style="fill:#7f9973;"/><clipPath id="_clip1"><path d="M102.018,70.09l0,-41.041l87.82,0l0,41.066c0.005,0.035 0.007,0.071 0.007,0.106c0,0.036 -0.002,0.071 -0.007,0.106l0,0.105l-0.023,0c-0.859,3.032 -20.196,5.459 -43.889,5.459c-23.694,0 -43.03,-2.427 -43.89,-5.459l-0.018,0l0,-0.08c-0.008,-0.043 -0.012,-0.087 -0.012,-0.131c0,-0.044 0.004,-0.087 0.012,-0.131Z"/></clipPath><g clip-path="url(#_clip1)"><rect x="181.542" y="15.751" width="37.496" height="69.371" style="fill:#6d8c5e;"/><rect x="66.552" y="12.622" width="37.496" height="69.371" style="fill:#6f9060;"/></g><g id="eye"><ellipse cx="125.76" cy="61.538" rx="5.591" ry="5.419" style="fill:#40433f;"/><circle cx="124.096" cy="60.362" r="2" style="fill:#e7fbde;"/><ellipse cx="126.096" cy="63.862" rx="0.668" ry="0.5" style="fill:#e7fbde;"/></g><ellipse cx="122.601" cy="68.457" rx="3.16" ry="1.5" style="fill:#c392af;"/><g id="eye1" serif:id="eye"><ellipse cx="163.897" cy="61.538" rx="5.591" ry="5.419" style="fill:#40433f;"/><circle cx="162.232" cy="60.362" r="2" style="fill:#e7fbde;"/><ellipse cx="164.232" cy="63.862" rx="0.668" ry="0.5" style="fill:#e7fbde;"/></g><ellipse cx="167.056" cy="68.457" rx="3.16" ry="1.5" style="fill:#c392af;"/><path d="M141.383,64.505c0.023,2.209 2.077,3.978 4.585,3.952c2.509,-0.027 4.524,-1.84 4.5,-4.049l-9.085,0.097Z" style="fill:#e3e6d9;"/><g><g><ellipse cx="128.496" cy="13.992" rx="6.783" ry="6.552" style="fill:#ef9a83;"/><ellipse cx="125.932" cy="12.466" rx="2.106" ry="2.106" style="fill:#f3d3ca;"/></g><g><ellipse cx="140.582" cy="15.53" rx="6.783" ry="6.552" style="fill:#ef9a83;"/><ellipse cx="138.017" cy="14.004" rx="2.106" ry="2.106" style="fill:#f3d3ca;"/></g><g><ellipse cx="153.103" cy="15.455" rx="6.783" ry="6.552" style="fill:#ef9a83;"/><ellipse cx="150.539" cy="13.929" rx="2.106" ry="2.106" style="fill:#f3d3ca;"/></g><g><ellipse cx="165.624" cy="15.381" rx="6.783" ry="6.552" style="fill:#ef9a83;"/><ellipse cx="163.06" cy="13.855" rx="2.106" ry="2.106" style="fill:#f3d3ca;"/></g><g><ellipse cx="116.493" cy="19.524" rx="6.783" ry="6.552" style="fill:#ef9a83;"/><ellipse cx="113.929" cy="17.998" rx="2.106" ry="2.106" style="fill:#f3d3ca;"/></g><g><ellipse cx="126.278" cy="23.036" rx="6.783" ry="6.552" style="fill:#ef9a83;"/><ellipse cx="123.714" cy="21.51" rx="2.106" ry="2.106" style="fill:#f3d3ca;"/></g><g><ellipse cx="136.823" cy="22.213" rx="6.783" ry="6.552" style="fill:#ef9a83;"/><ellipse cx="134.259" cy="20.687" rx="2.106" ry="2.106" style="fill:#f3d3ca;"/></g><g><ellipse cx="146.588" cy="23.42" rx="6.783" ry="6.552" style="fill:#ef9a83;"/><ellipse cx="144.024" cy="21.894" rx="2.106" ry="2.106" style="fill:#f3d3ca;"/></g><g><ellipse cx="158.949" cy="23.098" rx="6.783" ry="6.552" style="fill:#ef9a83;"/><ellipse cx="156.385" cy="21.572" rx="2.106" ry="2.106" style="fill:#f3d3ca;"/></g><g><ellipse cx="169.344" cy="21.812" rx="6.783" ry="6.552" style="fill:#ef9a83;"/><ellipse cx="166.78" cy="20.286" rx="2.106" ry="2.106" style="fill:#f3d3ca;"/></g><g><ellipse cx="176.504" cy="21.519" rx="6.783" ry="6.552" style="fill:#ef9a83;"/><ellipse cx="173.94" cy="19.993" rx="2.106" ry="2.106" style="fill:#f3d3ca;"/></g><g><ellipse cx="107.79" cy="26.026" rx="6.783" ry="6.552" style="fill:#ef9a83;"/><ellipse cx="105.226" cy="24.5" rx="2.106" ry="2.106" style="fill:#f3d3ca;"/></g><g><ellipse cx="115.255" cy="29.366" rx="6.783" ry="6.552" style="fill:#ef9a83;"/><ellipse cx="112.691" cy="27.84" rx="2.106" ry="2.106" style="fill:#f3d3ca;"/></g><g><ellipse cx="124.7" cy="31.072" rx="7.076" ry="6.552" style="fill:#ef9a83;"/><ellipse cx="122.025" cy="29.546" rx="2.197" ry="2.106" style="fill:#f3d3ca;"/></g><g><ellipse cx="134.908" cy="31.05" rx="6.783" ry="6.552" style="fill:#ef9a83;"/><ellipse cx="132.344" cy="29.524" rx="2.106" ry="2.106" style="fill:#f3d3ca;"/></g><g><ellipse cx="144.329" cy="32.635" rx="6.783" ry="6.552" style="fill:#ef9a83;"/><ellipse cx="141.765" cy="31.109" rx="2.106" ry="2.106" style="fill:#f3d3ca;"/></g><g><ellipse cx="154.581" cy="32.337" rx="6.783" ry="6.552" style="fill:#ef9a83;"/><ellipse cx="152.017" cy="30.811" rx="2.106" ry="2.106" style="fill:#f3d3ca;"/></g><g><ellipse cx="164.633" cy="31.774" rx="6.783" ry="6.552" style="fill:#ef9a83;"/><ellipse cx="162.069" cy="30.248" rx="2.106" ry="2.106" style="fill:#f3d3ca;"/></g><g><ellipse cx="174.633" cy="30.381" rx="6.783" ry="6.552" style="fill:#ef9a83;"/><ellipse cx="172.069" cy="28.855" rx="2.106" ry="2.106" style="fill:#f3d3ca;"/></g><g><ellipse cx="183.172" cy="27.636" rx="6.783" ry="6.552" style="fill:#ef9a83;"/><ellipse cx="180.608" cy="26.11" rx="2.106" ry="2.106" style="fill:#f3d3ca;"/></g></g></g><g id="sushi1" serif:id="sushi"><path d="M27.487,87.437l0,-41.042l87.82,0l0,41.066c0.005,0.036 0.008,0.071 0.008,0.107c0,0.035 -0.003,0.071 -0.008,0.106l0,0.104l-0.022,0c-0.86,3.032 -20.196,5.459 -43.89,5.459c-23.693,0 -43.03,-2.427 -43.89,-5.459l-0.018,0l0,-0.079c-0.008,-0.044 -0.011,-0.088 -0.011,-0.131c0,-0.044 0.003,-0.088 0.011,-0.131Z" style="fill:#7f9973;"/><clipPath id="_clip2"><path d="M27.487,87.437l0,-41.042l87.82,0l0,41.066c0.005,0.036 0.008,0.071 0.008,0.107c0,0.035 -0.003,0.071 -0.008,0.106l0,0.104l-0.022,0c-0.86,3.032 -20.196,5.459 -43.89,5.459c-23.693,0 -43.03,-2.427 -43.89,-5.459l-0.018,0l0,-0.079c-0.008,-0.044 -0.011,-0.088 -0.011,-0.131c0,-0.044 0.003,-0.088 0.011,-0.131Z"/></clipPath><g clip-path="url(#_clip2)"><rect x="107.011" y="33.097" width="37.496" height="69.371" style="fill:#6d8c5e;"/><rect x="-7.979" y="29.968" width="37.496" height="69.371" style="fill:#6f9060;"/></g><g id="eye2" serif:id="eye"><ellipse cx="51.23" cy="78.884" rx="5.591" ry="5.419" style="fill:#40433f;"/><circle cx="49.565" cy="77.708" r="2" style="fill:#e7fbde;"/><ellipse cx="51.565" cy="81.208" rx="0.668" ry="0.5" style="fill:#e7fbde;"/></g><ellipse cx="48.07" cy="85.803" rx="3.16" ry="1.5" style="fill:#c392af;"/><g id="eye3" serif:id="eye"><ellipse cx="89.366" cy="78.884" rx="5.591" ry="5.419" style="fill:#40433f;"/><circle cx="87.702" cy="77.708" r="2" style="fill:#e7fbde;"/><ellipse cx="89.702" cy="81.208" rx="0.668" ry="0.5" style="fill:#e7fbde;"/></g><ellipse cx="92.525" cy="85.803" rx="3.16" ry="1.5" style="fill:#c392af;"/><path d="M66.852,81.852c0.024,2.209 2.077,3.978 4.586,3.951c2.509,-0.027 4.523,-1.839 4.5,-4.048l-9.086,0.097Z" style="fill:#e3e6d9;"/><g><g><ellipse cx="53.479" cy="32.016" rx="6.783" ry="6.552" style="fill:#ef9a83;"/><ellipse cx="50.915" cy="30.49" rx="2.106" ry="2.106" style="fill:#f3d3ca;"/></g><g><ellipse cx="65.564" cy="33.553" rx="6.783" ry="6.552" style="fill:#ef9a83;"/><ellipse cx="63" cy="32.027" rx="2.106" ry="2.106" style="fill:#f3d3ca;"/></g><g><ellipse cx="78.086" cy="33.479" rx="6.783" ry="6.552" style="fill:#ef9a83;"/><ellipse cx="75.522" cy="31.953" rx="2.106" ry="2.106" style="fill:#f3d3ca;"/></g><g><ellipse cx="90.607" cy="33.404" rx="6.783" ry="6.552" style="fill:#ef9a83;"/><ellipse cx="88.043" cy="31.878" rx="2.106" ry="2.106" style="fill:#f3d3ca;"/></g><g><ellipse cx="41.476" cy="37.548" rx="6.783" ry="6.552" style="fill:#ef9a83;"/><ellipse cx="38.912" cy="36.022" rx="2.106" ry="2.106" style="fill:#f3d3ca;"/></g><g><ellipse cx="51.261" cy="41.06" rx="6.783" ry="6.552" style="fill:#ef9a83;"/><ellipse cx="48.697" cy="39.534" rx="2.106" ry="2.106" style="fill:#f3d3ca;"/></g><g><ellipse cx="61.806" cy="40.237" rx="6.783" ry="6.552" style="fill:#ef9a83;"/><ellipse cx="59.241" cy="38.711" rx="2.106" ry="2.106" style="fill:#f3d3ca;"/></g><g><ellipse cx="71.571" cy="41.444" rx="6.783" ry="6.552" style="fill:#ef9a83;"/><ellipse cx="69.007" cy="39.918" rx="2.106" ry="2.106" style="fill:#f3d3ca;"/></g><g><ellipse cx="83.932" cy="41.121" rx="6.783" ry="6.552" style="fill:#ef9a83;"/><ellipse cx="81.368" cy="39.596" rx="2.106" ry="2.106" style="fill:#f3d3ca;"/></g><g><ellipse cx="94.327" cy="39.836" rx="6.783" ry="6.552" style="fill:#ef9a83;"/><ellipse cx="91.763" cy="38.31" rx="2.106" ry="2.106" style="fill:#f3d3ca;"/></g><g><ellipse cx="101.487" cy="39.543" rx="6.783" ry="6.552" style="fill:#ef9a83;"/><ellipse cx="98.923" cy="38.017" rx="2.106" ry="2.106" style="fill:#f3d3ca;"/></g><g><ellipse cx="32.773" cy="44.05" rx="6.783" ry="6.552" style="fill:#ef9a83;"/><ellipse cx="30.209" cy="42.524" rx="2.106" ry="2.106" style="fill:#f3d3ca;"/></g><g><ellipse cx="40.238" cy="47.39" rx="6.783" ry="6.552" style="fill:#ef9a83;"/><ellipse cx="37.674" cy="45.864" rx="2.106" ry="2.106" style="fill:#f3d3ca;"/></g><g><ellipse cx="49.683" cy="49.096" rx="7.076" ry="6.552" style="fill:#ef9a83;"/><ellipse cx="47.008" cy="47.57" rx="2.197" ry="2.106" style="fill:#f3d3ca;"/></g><g><ellipse cx="59.891" cy="49.074" rx="6.783" ry="6.552" style="fill:#ef9a83;"/><ellipse cx="57.327" cy="47.548" rx="2.106" ry="2.106" style="fill:#f3d3ca;"/></g><g><ellipse cx="69.312" cy="50.659" rx="6.783" ry="6.552" style="fill:#ef9a83;"/><ellipse cx="66.748" cy="49.133" rx="2.106" ry="2.106" style="fill:#f3d3ca;"/></g><g><ellipse cx="79.564" cy="50.361" rx="6.783" ry="6.552" style="fill:#ef9a83;"/><ellipse cx="77" cy="48.835" rx="2.106" ry="2.106" style="fill:#f3d3ca;"/></g><g><ellipse cx="89.616" cy="49.798" rx="6.783" ry="6.552" style="fill:#ef9a83;"/><ellipse cx="87.052" cy="48.272" rx="2.106" ry="2.106" style="fill:#f3d3ca;"/></g><g><ellipse cx="99.616" cy="48.404" rx="6.783" ry="6.552" style="fill:#ef9a83;"/><ellipse cx="97.052" cy="46.878" rx="2.106" ry="2.106" style="fill:#f3d3ca;"/></g><g><ellipse cx="108.155" cy="45.659" rx="6.783" ry="6.552" style="fill:#ef9a83;"/><ellipse cx="105.591" cy="44.134" rx="2.106" ry="2.106" style="fill:#f3d3ca;"/></g></g></g><g id="sushi2" serif:id="sushi"><path d="M179.417,87.392l0,-41.042l87.82,0l0,41.066c0.005,0.036 0.008,0.071 0.008,0.107c0,0.035 -0.003,0.07 -0.008,0.106l0,0.104l-0.022,0c-0.86,3.032 -20.196,5.459 -43.89,5.459c-23.693,0 -43.03,-2.427 -43.89,-5.459l-0.018,0l0,-0.079c-0.008,-0.044 -0.011,-0.088 -0.011,-0.131c0,-0.044 0.003,-0.088 0.011,-0.131Z" style="fill:#7f9973;"/><clipPath id="_clip3"><path d="M179.417,87.392l0,-41.042l87.82,0l0,41.066c0.005,0.036 0.008,0.071 0.008,0.107c0,0.035 -0.003,0.07 -0.008,0.106l0,0.104l-0.022,0c-0.86,3.032 -20.196,5.459 -43.89,5.459c-23.693,0 -43.03,-2.427 -43.89,-5.459l-0.018,0l0,-0.079c-0.008,-0.044 -0.011,-0.088 -0.011,-0.131c0,-0.044 0.003,-0.088 0.011,-0.131Z"/></clipPath><g clip-path="url(#_clip3)"><rect x="258.941" y="33.052" width="37.496" height="69.371" style="fill:#6d8c5e;"/><rect x="143.951" y="29.923" width="37.496" height="69.371" style="fill:#6f9060;"/></g><g id="eye4" serif:id="eye"><ellipse cx="203.16" cy="78.839" rx="5.591" ry="5.419" style="fill:#40433f;"/><circle cx="201.495" cy="77.663" r="2" style="fill:#e7fbde;"/><ellipse cx="203.495" cy="81.163" rx="0.668" ry="0.5" style="fill:#e7fbde;"/></g><ellipse cx="200" cy="85.758" rx="3.16" ry="1.5" style="fill:#c392af;"/><g id="eye5" serif:id="eye"><ellipse cx="241.296" cy="78.839" rx="5.591" ry="5.419" style="fill:#40433f;"/><circle cx="239.632" cy="77.663" r="2" style="fill:#e7fbde;"/><ellipse cx="241.632" cy="81.163" rx="0.668" ry="0.5" style="fill:#e7fbde;"/></g><ellipse cx="244.456" cy="85.758" rx="3.16" ry="1.5" style="fill:#c392af;"/><path d="M218.782,81.807c0.024,2.209 2.077,3.978 4.586,3.951c2.509,-0.027 4.523,-1.839 4.5,-4.048l-9.086,0.097Z" style="fill:#e3e6d9;"/><g><g><ellipse cx="206.421" cy="30.494" rx="6.783" ry="6.552" style="fill:#ef9a83;"/><ellipse cx="203.857" cy="28.968" rx="2.106" ry="2.106" style="fill:#f3d3ca;"/></g><g><ellipse cx="218.507" cy="32.032" rx="6.783" ry="6.552" style="fill:#ef9a83;"/><ellipse cx="215.943" cy="30.506" rx="2.106" ry="2.106" style="fill:#f3d3ca;"/></g><g><ellipse cx="231.028" cy="31.957" rx="6.783" ry="6.552" style="fill:#ef9a83;"/><ellipse cx="228.464" cy="30.431" rx="2.106" ry="2.106" style="fill:#f3d3ca;"/></g><g><ellipse cx="243.549" cy="31.883" rx="6.783" ry="6.552" style="fill:#ef9a83;"/><ellipse cx="240.985" cy="30.357" rx="2.106" ry="2.106" style="fill:#f3d3ca;"/></g><g><ellipse cx="194.418" cy="36.026" rx="6.783" ry="6.552" style="fill:#ef9a83;"/><ellipse cx="191.854" cy="34.5" rx="2.106" ry="2.106" style="fill:#f3d3ca;"/></g><g><ellipse cx="204.203" cy="39.538" rx="6.783" ry="6.552" style="fill:#ef9a83;"/><ellipse cx="201.639" cy="38.012" rx="2.106" ry="2.106" style="fill:#f3d3ca;"/></g><g><ellipse cx="214.748" cy="38.715" rx="6.783" ry="6.552" style="fill:#ef9a83;"/><ellipse cx="212.184" cy="37.189" rx="2.106" ry="2.106" style="fill:#f3d3ca;"/></g><g><ellipse cx="224.514" cy="39.922" rx="6.783" ry="6.552" style="fill:#ef9a83;"/><ellipse cx="221.95" cy="38.396" rx="2.106" ry="2.106" style="fill:#f3d3ca;"/></g><g><ellipse cx="236.875" cy="39.6" rx="6.783" ry="6.552" style="fill:#ef9a83;"/><ellipse cx="234.311" cy="38.074" rx="2.106" ry="2.106" style="fill:#f3d3ca;"/></g><g><ellipse cx="247.27" cy="38.314" rx="6.783" ry="6.552" style="fill:#ef9a83;"/><ellipse cx="244.706" cy="36.788" rx="2.106" ry="2.106" style="fill:#f3d3ca;"/></g><g><ellipse cx="254.429" cy="38.021" rx="6.783" ry="6.552" style="fill:#ef9a83;"/><ellipse cx="251.865" cy="36.495" rx="2.106" ry="2.106" style="fill:#f3d3ca;"/></g><g><ellipse cx="185.715" cy="42.528" rx="6.783" ry="6.552" style="fill:#ef9a83;"/><ellipse cx="183.151" cy="41.002" rx="2.106" ry="2.106" style="fill:#f3d3ca;"/></g><g><ellipse cx="193.18" cy="45.868" rx="6.783" ry="6.552" style="fill:#ef9a83;"/><ellipse cx="190.616" cy="44.342" rx="2.106" ry="2.106" style="fill:#f3d3ca;"/></g><g><ellipse cx="202.625" cy="47.574" rx="7.076" ry="6.552" style="fill:#ef9a83;"/><ellipse cx="199.95" cy="46.048" rx="2.197" ry="2.106" style="fill:#f3d3ca;"/></g><g><ellipse cx="212.833" cy="47.552" rx="6.783" ry="6.552" style="fill:#ef9a83;"/><ellipse cx="210.269" cy="46.026" rx="2.106" ry="2.106" style="fill:#f3d3ca;"/></g><g><ellipse cx="222.254" cy="49.137" rx="6.783" ry="6.552" style="fill:#ef9a83;"/><ellipse cx="219.69" cy="47.611" rx="2.106" ry="2.106" style="fill:#f3d3ca;"/></g><g><ellipse cx="232.506" cy="48.839" rx="6.783" ry="6.552" style="fill:#ef9a83;"/><ellipse cx="229.942" cy="47.313" rx="2.106" ry="2.106" style="fill:#f3d3ca;"/></g><g><ellipse cx="242.558" cy="48.276" rx="6.783" ry="6.552" style="fill:#ef9a83;"/><ellipse cx="239.994" cy="46.75" rx="2.106" ry="2.106" style="fill:#f3d3ca;"/></g><g><ellipse cx="252.558" cy="46.882" rx="6.783" ry="6.552" style="fill:#ef9a83;"/><ellipse cx="249.994" cy="45.356" rx="2.106" ry="2.106" style="fill:#f3d3ca;"/></g><g><ellipse cx="261.097" cy="44.138" rx="6.783" ry="6.552" style="fill:#ef9a83;"/><ellipse cx="258.533" cy="42.612" rx="2.106" ry="2.106" style="fill:#f3d3ca;"/></g></g></g><g id="sushi3" serif:id="sushi"><path d="M103.417,104.522l0,-41.041l87.82,0l0,41.066c0.005,0.036 0.008,0.071 0.008,0.106c0,0.036 -0.003,0.071 -0.008,0.107l0,0.104l-0.022,0c-0.86,3.032 -20.196,5.459 -43.89,5.459c-23.693,0 -43.03,-2.427 -43.89,-5.459l-0.018,0l0,-0.079c-0.008,-0.044 -0.011,-0.088 -0.011,-0.132c0,-0.043 0.003,-0.087 0.011,-0.131Z" style="fill:#7f9973;"/><clipPath id="_clip4"><path d="M103.417,104.522l0,-41.041l87.82,0l0,41.066c0.005,0.036 0.008,0.071 0.008,0.106c0,0.036 -0.003,0.071 -0.008,0.107l0,0.104l-0.022,0c-0.86,3.032 -20.196,5.459 -43.89,5.459c-23.693,0 -43.03,-2.427 -43.89,-5.459l-0.018,0l0,-0.079c-0.008,-0.044 -0.011,-0.088 -0.011,-0.132c0,-0.043 0.003,-0.087 0.011,-0.131Z"/></clipPath><g clip-path="url(#_clip4)"><rect x="182.941" y="50.183" width="37.496" height="69.371" style="fill:#6d8c5e;"/><rect x="67.951" y="47.054" width="37.496" height="69.371" style="fill:#6f9060;"/></g><g id="eye6" serif:id="eye"><ellipse cx="127.16" cy="95.97" rx="5.591" ry="5.419" style="fill:#40433f;"/><circle cx="125.495" cy="94.794" r="2" style="fill:#e7fbde;"/><ellipse cx="127.495" cy="98.294" rx="0.668" ry="0.5" style="fill:#e7fbde;"/></g><ellipse cx="124" cy="102.889" rx="3.16" ry="1.5" style="fill:#c392af;"/><g id="eye7" serif:id="eye"><ellipse cx="165.296" cy="95.97" rx="5.591" ry="5.419" style="fill:#40433f;"/><circle cx="163.632" cy="94.794" r="2" style="fill:#e7fbde;"/><ellipse cx="165.632" cy="98.294" rx="0.668" ry="0.5" style="fill:#e7fbde;"/></g><ellipse cx="168.456" cy="102.889" rx="3.16" ry="1.5" style="fill:#c392af;"/><path d="M142.782,98.938c0.024,2.209 2.077,3.978 4.586,3.951c2.509,-0.027 4.523,-1.839 4.5,-4.048l-9.086,0.097Z" style="fill:#e3e6d9;"/><g><g><ellipse cx="130.421" cy="47.625" rx="6.783" ry="6.552" style="fill:#ef9a83;"/><ellipse cx="127.857" cy="46.099" rx="2.106" ry="2.106" style="fill:#f3d3ca;"/></g><g><ellipse cx="142.507" cy="49.163" rx="6.783" ry="6.552" style="fill:#ef9a83;"/><ellipse cx="139.943" cy="47.637" rx="2.106" ry="2.106" style="fill:#f3d3ca;"/></g><g><ellipse cx="155.028" cy="49.088" rx="6.783" ry="6.552" style="fill:#ef9a83;"/><ellipse cx="152.464" cy="47.562" rx="2.106" ry="2.106" style="fill:#f3d3ca;"/></g><g><ellipse cx="167.549" cy="49.013" rx="6.783" ry="6.552" style="fill:#ef9a83;"/><ellipse cx="164.985" cy="47.488" rx="2.106" ry="2.106" style="fill:#f3d3ca;"/></g><g><ellipse cx="118.418" cy="53.157" rx="6.783" ry="6.552" style="fill:#ef9a83;"/><ellipse cx="115.854" cy="51.631" rx="2.106" ry="2.106" style="fill:#f3d3ca;"/></g><g><ellipse cx="128.203" cy="56.669" rx="6.783" ry="6.552" style="fill:#ef9a83;"/><ellipse cx="125.639" cy="55.143" rx="2.106" ry="2.106" style="fill:#f3d3ca;"/></g><g><ellipse cx="138.748" cy="55.846" rx="6.783" ry="6.552" style="fill:#ef9a83;"/><ellipse cx="136.184" cy="54.32" rx="2.106" ry="2.106" style="fill:#f3d3ca;"/></g><g><ellipse cx="148.514" cy="57.053" rx="6.783" ry="6.552" style="fill:#ef9a83;"/><ellipse cx="145.95" cy="55.527" rx="2.106" ry="2.106" style="fill:#f3d3ca;"/></g><g><ellipse cx="160.875" cy="56.731" rx="6.783" ry="6.552" style="fill:#ef9a83;"/><ellipse cx="158.311" cy="55.205" rx="2.106" ry="2.106" style="fill:#f3d3ca;"/></g><g><ellipse cx="171.27" cy="55.445" rx="6.783" ry="6.552" style="fill:#ef9a83;"/><ellipse cx="168.706" cy="53.919" rx="2.106" ry="2.106" style="fill:#f3d3ca;"/></g><g><ellipse cx="178.429" cy="55.152" rx="6.783" ry="6.552" style="fill:#ef9a83;"/><ellipse cx="175.865" cy="53.626" rx="2.106" ry="2.106" style="fill:#f3d3ca;"/></g><g><ellipse cx="109.715" cy="59.659" rx="6.783" ry="6.552" style="fill:#ef9a83;"/><ellipse cx="107.151" cy="58.133" rx="2.106" ry="2.106" style="fill:#f3d3ca;"/></g><g><ellipse cx="117.18" cy="62.999" rx="6.783" ry="6.552" style="fill:#ef9a83;"/><ellipse cx="114.616" cy="61.473" rx="2.106" ry="2.106" style="fill:#f3d3ca;"/></g><g><ellipse cx="126.625" cy="64.705" rx="7.076" ry="6.552" style="fill:#ef9a83;"/><ellipse cx="123.95" cy="63.179" rx="2.197" ry="2.106" style="fill:#f3d3ca;"/></g><g><ellipse cx="136.833" cy="64.683" rx="6.783" ry="6.552" style="fill:#ef9a83;"/><ellipse cx="134.269" cy="63.157" rx="2.106" ry="2.106" style="fill:#f3d3ca;"/></g><g><ellipse cx="146.254" cy="66.268" rx="6.783" ry="6.552" style="fill:#ef9a83;"/><ellipse cx="143.69" cy="64.742" rx="2.106" ry="2.106" style="fill:#f3d3ca;"/></g><g><ellipse cx="156.506" cy="65.97" rx="6.783" ry="6.552" style="fill:#ef9a83;"/><ellipse cx="153.942" cy="64.444" rx="2.106" ry="2.106" style="fill:#f3d3ca;"/></g><g><ellipse cx="166.558" cy="65.407" rx="6.783" ry="6.552" style="fill:#ef9a83;"/><ellipse cx="163.994" cy="63.881" rx="2.106" ry="2.106" style="fill:#f3d3ca;"/></g><g><ellipse cx="176.558" cy="64.013" rx="6.783" ry="6.552" style="fill:#ef9a83;"/><ellipse cx="173.994" cy="62.487" rx="2.106" ry="2.106" style="fill:#f3d3ca;"/></g><g><ellipse cx="185.097" cy="61.269" rx="6.783" ry="6.552" style="fill:#ef9a83;"/><ellipse cx="182.533" cy="59.743" rx="2.106" ry="2.106" style="fill:#f3d3ca;"/></g></g></g></g></svg>