<?xml version="1.0" encoding="UTF-8" standalone="no"?><!DOCTYPE svg PUBLIC "-//W3C//DTD SVG 1.1//EN" "http://www.w3.org/Graphics/SVG/1.1/DTD/svg11.dtd"><svg width="100%" height="100%" viewBox="0 0 287 116" version="1.1" xmlns="http://www.w3.org/2000/svg" xmlns:xlink="http://www.w3.org/1999/xlink" xml:space="preserve" xmlns:serif="http://www.serif.com/" style="fill-rule:evenodd;clip-rule:evenodd;stroke-linecap:round;stroke-linejoin:round;stroke-miterlimit:1.5;"><g id="plate"><ellipse cx="143.965" cy="76.846" rx="140.212" ry="34.116" style="fill:#e1d7cd;"/><ellipse cx="143.92" cy="74.693" rx="140.212" ry="36.269" style="fill:#e1d7cd;"/><ellipse cx="143.92" cy="71.529" rx="140.212" ry="34.116" style="fill:#555;"/><ellipse cx="146.677" cy="69.818" rx="113.886" ry="23.219" style="fill:#e1d7cd;"/></g><g id="black-sushi"><g id="sushi"><path d="M167.941,45.779c-0.242,-4.832 -4.362,-8.559 -9.194,-8.317l-120.893,6.052c-4.833,0.241 -8.559,4.361 -8.318,9.193l0.877,17.511c0.242,4.833 4.361,8.56 9.194,8.318l120.893,-6.052c4.832,-0.242 8.559,-4.362 8.317,-9.194l-0.876,-17.511Z" style="fill:#fbfbfb;"/><path d="M179.974,56.609c-4.205,-31.321 -43.741,-51.9 -88.233,-45.927c-44.493,5.973 -77.202,36.25 -72.997,67.571c17.548,-11.921 46.171,-23.53 78.329,-27.847c32.158,-4.317 62.829,-0.668 82.901,6.203Z" style="fill:#b21c16;"/><clipPath id="_clip1"><path d="M179.974,56.609c-4.205,-31.321 -43.741,-51.9 -88.233,-45.927c-44.493,5.973 -77.202,36.25 -72.997,67.571c17.548,-11.921 46.171,-23.53 78.329,-27.847c32.158,-4.317 62.829,-0.668 82.901,6.203Z"/></clipPath><g clip-path="url(#_clip1)"><path d="M39.526,30.26l-11.747,47.993" style="fill:#fb0900;stroke:#cc5a5a;stroke-width:5px;"/><path d="M57.867,18.033l-10.48,50.992" style="fill:#fb0900;stroke:#cc5a5a;stroke-width:5px;"/><path d="M70.968,9.651l-4.367,59.374" style="fill:#fb0900;stroke:#cc5a5a;stroke-width:5px;"/><path d="M91.056,9.651l-3.493,48.348" style="fill:#fb0900;stroke:#cc5a5a;stroke-width:5px;"/><path d="M112.017,9.651l-4.367,48.348" style="fill:#fb0900;stroke:#cc5a5a;stroke-width:5px;"/><path d="M139.092,9.651l-9.607,48.348" style="fill:#fb0900;stroke:#cc5a5a;stroke-width:5px;"/><path d="M170.534,18.033l-16.594,39.966" style="fill:#fb0900;stroke:#cc5a5a;stroke-width:5px;"/></g><g><ellipse cx="60.051" cy="64.553" rx="4.804" ry="4.472" style="fill:#383838;"/><ellipse cx="59.198" cy="65.891" rx="0.457" ry="0.514" style="fill:#d2d2d2;"/><circle cx="57.431" cy="63.243" r="1.31" style="fill:#dcdcdc;"/></g><g><ellipse cx="94.373" cy="64.553" rx="4.804" ry="4.472" style="fill:#383838;"/><ellipse cx="93.521" cy="65.891" rx="0.457" ry="0.514" style="fill:#d2d2d2;"/><circle cx="91.753" cy="63.243" r="1.31" style="fill:#dcdcdc;"/></g><path d="M74.201,68.39c0.73,1.191 1.943,1.905 3.241,1.909c1.298,0.004 2.515,-0.703 3.253,-1.89l-6.494,-0.019Z" style="fill:#4b4b4b;"/><ellipse cx="55.902" cy="70.604" rx="4.149" ry="1.579" style="fill:#fea9ce;"/><ellipse cx="99.177" cy="70.604" rx="4.149" ry="1.579" style="fill:#fea9ce;"/></g><g id="sushi1" serif:id="sushi"><path d="M262.941,50.779c-0.242,-4.832 -4.362,-8.559 -9.194,-8.317l-120.893,6.052c-4.833,0.241 -8.559,4.361 -8.318,9.193l0.877,17.511c0.242,4.833 4.361,8.56 9.194,8.318l120.893,-6.052c4.832,-0.242 8.559,-4.362 8.317,-9.194l-0.876,-17.511Z" style="fill:#fbfbfb;"/><path d="M274.974,61.609c-4.205,-31.321 -43.741,-51.9 -88.233,-45.927c-44.493,5.973 -77.202,36.25 -72.997,67.571c17.548,-11.921 46.171,-23.53 78.329,-27.847c32.158,-4.317 62.829,-0.668 82.901,6.203Z" style="fill:#b21c16;"/><clipPath id="_clip2"><path d="M274.974,61.609c-4.205,-31.321 -43.741,-51.9 -88.233,-45.927c-44.493,5.973 -77.202,36.25 -72.997,67.571c17.548,-11.921 46.171,-23.53 78.329,-27.847c32.158,-4.317 62.829,-0.668 82.901,6.203Z"/></clipPath><g clip-path="url(#_clip2)"><path d="M134.526,35.26l-11.747,47.993" style="fill:#fb0900;stroke:#cc5a5a;stroke-width:5px;"/><path d="M152.867,23.033l-10.48,50.992" style="fill:#fb0900;stroke:#cc5a5a;stroke-width:5px;"/><path d="M165.968,14.651l-4.367,59.374" style="fill:#fb0900;stroke:#cc5a5a;stroke-width:5px;"/><path d="M186.056,14.651l-3.493,48.348" style="fill:#fb0900;stroke:#cc5a5a;stroke-width:5px;"/><path d="M207.017,14.651l-4.367,48.348" style="fill:#fb0900;stroke:#cc5a5a;stroke-width:5px;"/><path d="M234.092,14.651l-9.607,48.348" style="fill:#fb0900;stroke:#cc5a5a;stroke-width:5px;"/><path d="M265.534,23.033l-16.594,39.966" style="fill:#fb0900;stroke:#cc5a5a;stroke-width:5px;"/></g><g><ellipse cx="155.051" cy="69.553" rx="4.804" ry="4.472" style="fill:#383838;"/><ellipse cx="154.198" cy="70.891" rx="0.457" ry="0.514" style="fill:#d2d2d2;"/><circle cx="152.431" cy="68.243" r="1.31" style="fill:#dcdcdc;"/></g><g><ellipse cx="189.373" cy="69.553" rx="4.804" ry="4.472" style="fill:#383838;"/><ellipse cx="188.521" cy="70.891" rx="0.457" ry="0.514" style="fill:#d2d2d2;"/><circle cx="186.753" cy="68.243" r="1.31" style="fill:#dcdcdc;"/></g><path d="M169.201,73.39c0.73,1.191 1.943,1.905 3.241,1.909c1.298,0.004 2.515,-0.703 3.253,-1.89l-6.494,-0.019Z" style="fill:#4b4b4b;"/><ellipse cx="150.902" cy="75.604" rx="4.149" ry="1.579" style="fill:#fea9ce;"/><ellipse cx="194.177" cy="75.604" rx="4.149" ry="1.579" style="fill:#fea9ce;"/></g></g></svg>