<?xml version="1.0" encoding="UTF-8" standalone="no"?><!DOCTYPE svg PUBLIC "-//W3C//DTD SVG 1.1//EN" "http://www.w3.org/Graphics/SVG/1.1/DTD/svg11.dtd"><svg width="100%" height="100%" viewBox="0 0 287 131" version="1.1" xmlns="http://www.w3.org/2000/svg" xmlns:xlink="http://www.w3.org/1999/xlink" xml:space="preserve" xmlns:serif="http://www.serif.com/" style="fill-rule:evenodd;clip-rule:evenodd;stroke-linecap:round;stroke-linejoin:round;stroke-miterlimit:1.5;"><g id="plate"><ellipse cx="143.755" cy="93.846" rx="140.212" ry="34.116" style="fill:#e1d7cd;"/><ellipse cx="143.71" cy="91.693" rx="140.212" ry="36.269" style="fill:#e1d7cd;"/><ellipse cx="143.71" cy="88.529" rx="140.212" ry="34.116" style="fill:#5e6884;"/><ellipse cx="146.467" cy="86.818" rx="113.886" ry="23.219" style="fill:#e1d7cd;"/></g><g id="blue-sushi"><g id="sushi"><path d="M147.302,12.288c1.859,-0.921 4.373,-1.653 7.065,-1.787c2.692,-0.134 5.267,0.344 7.208,1.075c2.091,-0.491 4.743,-0.659 7.364,-0.208c2.621,0.45 4.923,1.469 6.534,2.596c2.166,-0.025 4.761,0.384 7.116,1.386c2.356,1.001 4.214,2.485 5.375,3.924c2.08,0.442 4.425,1.399 6.341,2.877c1.915,1.478 3.192,3.316 3.816,4.961c1.842,0.878 3.762,2.31 5.095,4.155c1.334,1.846 1.934,3.902 1.976,5.631c1.466,1.247 2.819,3.049 3.472,5.125c0.652,2.076 0.532,4.198 -0.011,5.882c0.98,1.525 1.667,3.562 1.59,5.715c-0.077,2.152 -0.909,4.182 -1.998,5.697c0.423,1.689 0.392,3.812 -0.409,5.881c-0.8,2.069 -2.282,3.857 -3.836,5.09c-0.165,1.728 -0.912,3.778 -2.377,5.61c-1.465,1.832 -3.487,3.246 -5.39,4.106c-0.742,1.638 -2.149,3.464 -4.17,4.924c-2.02,1.459 -4.433,2.393 -6.544,2.816c-1.263,1.428 -3.227,2.893 -5.653,3.872c-2.426,0.979 -5.05,1.364 -7.213,1.319c-1.691,1.111 -4.064,2.108 -6.717,2.533c-2.652,0.426 -5.292,0.233 -7.346,-0.277c-1.994,0.712 -4.601,1.166 -7.283,1.007c-2.681,-0.16 -5.142,-0.916 -6.935,-1.853c-2.148,0.26 -4.797,0.138 -7.308,-0.595c-2.512,-0.732 -4.611,-1.995 -6.01,-3.29c-2.144,-0.211 -4.637,-0.9 -6.792,-2.152c-2.156,-1.251 -3.738,-2.928 -4.639,-4.484c-1.979,-0.667 -4.132,-1.872 -5.772,-3.55c-1.64,-1.677 -2.587,-3.643 -2.923,-5.345c-1.669,-1.073 -3.322,-2.705 -4.324,-4.684c-1.002,-1.979 -1.245,-4.088 -0.991,-5.811c-1.235,-1.398 -2.265,-3.336 -2.555,-5.47c-0.291,-2.134 0.19,-4.23 1.014,-5.845c-0.709,-1.621 -1.039,-3.721 -0.597,-5.851c0.443,-2.131 1.611,-4.058 2.945,-5.445c-0.13,-1.724 0.263,-3.83 1.406,-5.799c1.143,-1.969 2.912,-3.585 4.656,-4.642c0.458,-1.699 1.546,-3.655 3.305,-5.316c1.759,-1.662 3.997,-2.846 6.023,-3.494c1.012,-1.547 2.713,-3.208 4.957,-4.439c2.245,-1.231 4.786,-1.896 6.944,-2.087c1.491,-1.281 3.679,-2.524 6.243,-3.233c2.563,-0.709 5.219,-0.806 7.348,-0.525Z" style="fill:#fcfcfc;stroke:#eee;stroke-width:1px;"/><path d="M142.296,13.872c1.616,-0.81 3.778,-1.405 6.065,-1.405c2.288,0 4.45,0.595 6.066,1.405c1.792,-0.379 4.048,-0.413 6.251,0.155c2.203,0.569 4.111,1.679 5.43,2.861c1.837,0.081 4.019,0.609 5.974,1.704c1.954,1.095 3.467,2.638 4.39,4.104c1.745,0.535 3.692,1.585 5.254,3.126c1.561,1.541 2.566,3.403 3.026,5.044c1.524,0.949 3.091,2.444 4.144,4.316c1.052,1.872 1.474,3.914 1.437,5.609c1.189,1.292 2.261,3.122 2.726,5.186c0.466,2.065 0.274,4.136 -0.258,5.759c0.767,1.54 1.263,3.568 1.107,5.672c-0.157,2.103 -0.948,4.05 -1.935,5.48c0.287,1.674 0.171,3.75 -0.595,5.737c-0.766,1.986 -2.098,3.665 -3.467,4.796c-0.214,1.683 -0.934,3.654 -2.253,5.376c-1.319,1.723 -3.093,3.008 -4.743,3.757c-0.698,1.567 -1.968,3.286 -3.743,4.616c-1.774,1.331 -3.859,2.127 -5.667,2.438c-1.131,1.336 -2.857,2.675 -4.956,3.515c-2.098,0.84 -4.338,1.089 -6.17,0.939c-1.481,1.005 -3.535,1.865 -5.801,2.152c-2.267,0.287 -4.496,-0.03 -6.217,-0.63c-1.72,0.6 -3.949,0.917 -6.216,0.63c-2.266,-0.287 -4.321,-1.147 -5.801,-2.152c-1.832,0.15 -4.072,-0.099 -6.171,-0.939c-2.098,-0.84 -3.824,-2.179 -4.955,-3.515c-1.808,-0.311 -3.893,-1.107 -5.667,-2.438c-1.775,-1.33 -3.045,-3.049 -3.743,-4.616c-1.65,-0.749 -3.424,-2.034 -4.743,-3.757c-1.32,-1.722 -2.04,-3.693 -2.253,-5.376c-1.369,-1.131 -2.701,-2.81 -3.467,-4.796c-0.766,-1.987 -0.883,-4.063 -0.595,-5.737c-0.987,-1.43 -1.778,-3.377 -1.935,-5.48c-0.156,-2.104 0.34,-4.132 1.107,-5.672c-0.532,-1.623 -0.724,-3.694 -0.258,-5.759c0.465,-2.064 1.537,-3.894 2.726,-5.186c-0.037,-1.695 0.385,-3.737 1.437,-5.609c1.053,-1.872 2.62,-3.367 4.144,-4.316c0.46,-1.641 1.465,-3.503 3.026,-5.044c1.562,-1.541 3.509,-2.591 5.254,-3.126c0.923,-1.466 2.435,-3.009 4.39,-4.104c1.955,-1.095 4.137,-1.623 5.974,-1.704c1.319,-1.182 3.227,-2.292 5.43,-2.861c2.202,-0.568 4.459,-0.534 6.251,-0.155Z" style="fill:#fcfcfc;stroke:#eee;stroke-width:1px;"/><path d="M144.242,27.105c0.97,-0.512 2.296,-0.891 3.704,-0.891c1.409,0 2.735,0.379 3.705,0.891c1.085,-0.255 2.474,-0.294 3.83,0.052c1.356,0.346 2.521,1.036 3.303,1.768c1.121,0.021 2.47,0.325 3.673,0.991c1.204,0.666 2.121,1.617 2.657,2.513c1.073,0.296 2.282,0.92 3.243,1.857c0.961,0.937 1.563,2.078 1.813,3.073c0.946,0.547 1.925,1.445 2.573,2.584c0.648,1.138 0.889,2.384 0.835,3.404c0.749,0.76 1.426,1.865 1.712,3.12c0.287,1.256 0.149,2.515 -0.205,3.483c0.496,0.916 0.82,2.146 0.724,3.425c-0.096,1.28 -0.601,2.458 -1.229,3.304c0.206,1.003 0.153,2.268 -0.318,3.476c-0.472,1.208 -1.308,2.219 -2.163,2.879c-0.099,1.017 -0.524,2.222 -1.336,3.269c-0.813,1.048 -1.917,1.816 -2.936,2.241c-0.397,0.955 -1.163,2.01 -2.256,2.82c-1.092,0.809 -2.383,1.277 -3.491,1.437c-0.665,0.821 -1.715,1.65 -3.007,2.16c-1.292,0.511 -2.674,0.645 -3.787,0.527c-0.884,0.628 -2.142,1.167 -3.537,1.342c-1.395,0.174 -2.765,-0.036 -3.803,-0.424c-1.037,0.388 -2.407,0.598 -3.802,0.424c-1.396,-0.175 -2.653,-0.714 -3.537,-1.342c-1.113,0.118 -2.495,-0.016 -3.787,-0.527c-1.292,-0.51 -2.343,-1.339 -3.007,-2.16c-1.108,-0.16 -2.399,-0.628 -3.491,-1.437c-1.093,-0.81 -1.859,-1.865 -2.256,-2.82c-1.019,-0.425 -2.124,-1.193 -2.936,-2.241c-0.812,-1.047 -1.237,-2.252 -1.336,-3.269c-0.855,-0.66 -1.691,-1.671 -2.163,-2.879c-0.471,-1.208 -0.524,-2.473 -0.318,-3.476c-0.628,-0.846 -1.133,-2.024 -1.229,-3.304c-0.096,-1.279 0.228,-2.509 0.723,-3.425c-0.353,-0.968 -0.491,-2.227 -0.204,-3.483c0.286,-1.255 0.963,-2.36 1.712,-3.12c-0.054,-1.02 0.187,-2.266 0.835,-3.404c0.648,-1.139 1.627,-2.037 2.573,-2.584c0.25,-0.995 0.852,-2.136 1.813,-3.073c0.961,-0.937 2.17,-1.561 3.243,-1.857c0.536,-0.896 1.453,-1.847 2.657,-2.513c1.203,-0.666 2.552,-0.97 3.673,-0.991c0.782,-0.732 1.947,-1.422 3.303,-1.768c1.356,-0.346 2.745,-0.307 3.83,-0.052Z" style="fill:#ffdc00;"/><clipPath id="_clip1"><path d="M144.242,27.105c0.97,-0.512 2.296,-0.891 3.704,-0.891c1.409,0 2.735,0.379 3.705,0.891c1.085,-0.255 2.474,-0.294 3.83,0.052c1.356,0.346 2.521,1.036 3.303,1.768c1.121,0.021 2.47,0.325 3.673,0.991c1.204,0.666 2.121,1.617 2.657,2.513c1.073,0.296 2.282,0.92 3.243,1.857c0.961,0.937 1.563,2.078 1.813,3.073c0.946,0.547 1.925,1.445 2.573,2.584c0.648,1.138 0.889,2.384 0.835,3.404c0.749,0.76 1.426,1.865 1.712,3.12c0.287,1.256 0.149,2.515 -0.205,3.483c0.496,0.916 0.82,2.146 0.724,3.425c-0.096,1.28 -0.601,2.458 -1.229,3.304c0.206,1.003 0.153,2.268 -0.318,3.476c-0.472,1.208 -1.308,2.219 -2.163,2.879c-0.099,1.017 -0.524,2.222 -1.336,3.269c-0.813,1.048 -1.917,1.816 -2.936,2.241c-0.397,0.955 -1.163,2.01 -2.256,2.82c-1.092,0.809 -2.383,1.277 -3.491,1.437c-0.665,0.821 -1.715,1.65 -3.007,2.16c-1.292,0.511 -2.674,0.645 -3.787,0.527c-0.884,0.628 -2.142,1.167 -3.537,1.342c-1.395,0.174 -2.765,-0.036 -3.803,-0.424c-1.037,0.388 -2.407,0.598 -3.802,0.424c-1.396,-0.175 -2.653,-0.714 -3.537,-1.342c-1.113,0.118 -2.495,-0.016 -3.787,-0.527c-1.292,-0.51 -2.343,-1.339 -3.007,-2.16c-1.108,-0.16 -2.399,-0.628 -3.491,-1.437c-1.093,-0.81 -1.859,-1.865 -2.256,-2.82c-1.019,-0.425 -2.124,-1.193 -2.936,-2.241c-0.812,-1.047 -1.237,-2.252 -1.336,-3.269c-0.855,-0.66 -1.691,-1.671 -2.163,-2.879c-0.471,-1.208 -0.524,-2.473 -0.318,-3.476c-0.628,-0.846 -1.133,-2.024 -1.229,-3.304c-0.096,-1.279 0.228,-2.509 0.723,-3.425c-0.353,-0.968 -0.491,-2.227 -0.204,-3.483c0.286,-1.255 0.963,-2.36 1.712,-3.12c-0.054,-1.02 0.187,-2.266 0.835,-3.404c0.648,-1.139 1.627,-2.037 2.573,-2.584c0.25,-0.995 0.852,-2.136 1.813,-3.073c0.961,-0.937 2.17,-1.561 3.243,-1.857c0.536,-0.896 1.453,-1.847 2.657,-2.513c1.203,-0.666 2.552,-0.97 3.673,-0.991c0.782,-0.732 1.947,-1.422 3.303,-1.768c1.356,-0.346 2.745,-0.307 3.83,-0.052Z"/></clipPath><g clip-path="url(#_clip1)"><path d="M163.424,83.36c2.231,-3.941 3.406,-8.411 3.406,-12.962c0,-14.307 -11.39,-25.923 -25.42,-25.923c-14.03,0 -25.42,11.616 -25.42,25.923c0,4.551 1.174,9.021 3.405,12.962l44.029,0Z" style="fill:#8d1f38;"/><clipPath id="_clip2"><path d="M163.424,83.36c2.231,-3.941 3.406,-8.411 3.406,-12.962c0,-14.307 -11.39,-25.923 -25.42,-25.923c-14.03,0 -25.42,11.616 -25.42,25.923c0,4.551 1.174,9.021 3.405,12.962l44.029,0Z"/></clipPath><g clip-path="url(#_clip2)"><path d="M131.138,46.99l5.058,30.723l4.398,-33.238c0,0 4.586,29.735 5.277,34.993" style="fill:none;stroke:#6b1427;stroke-width:1.5px;"/></g><path d="M191.109,19.574c-26.8,0 -48.558,13.833 -48.558,30.871c0,17.038 21.758,30.871 48.558,30.871c-8.04,-7.203 -14.567,-18.556 -14.567,-30.871c0,-12.315 6.527,-23.668 14.567,-30.871Z" style="fill:#90bc95;"/><path d="M186.544,23.724c-18.783,0 -34.032,11.185 -34.032,24.961c0,13.777 15.249,24.961 34.032,24.961c-5.635,-5.824 -10.21,-15.003 -10.21,-24.961c0,-9.957 4.575,-19.137 10.21,-24.961Z" style="fill:#c2e9c7;"/></g><path d="M144.242,27.105c0.97,-0.512 2.296,-0.891 3.704,-0.891c1.409,0 2.735,0.379 3.705,0.891c1.085,-0.255 2.474,-0.294 3.83,0.052c1.356,0.346 2.521,1.036 3.303,1.768c1.121,0.021 2.47,0.325 3.673,0.991c1.204,0.666 2.121,1.617 2.657,2.513c1.073,0.296 2.282,0.92 3.243,1.857c0.961,0.937 1.563,2.078 1.813,3.073c0.946,0.547 1.925,1.445 2.573,2.584c0.648,1.138 0.889,2.384 0.835,3.404c0.749,0.76 1.426,1.865 1.712,3.12c0.287,1.256 0.149,2.515 -0.205,3.483c0.496,0.916 0.82,2.146 0.724,3.425c-0.096,1.28 -0.601,2.458 -1.229,3.304c0.206,1.003 0.153,2.268 -0.318,3.476c-0.472,1.208 -1.308,2.219 -2.163,2.879c-0.099,1.017 -0.524,2.222 -1.336,3.269c-0.813,1.048 -1.917,1.816 -2.936,2.241c-0.397,0.955 -1.163,2.01 -2.256,2.82c-1.092,0.809 -2.383,1.277 -3.491,1.437c-0.665,0.821 -1.715,1.65 -3.007,2.16c-1.292,0.511 -2.674,0.645 -3.787,0.527c-0.884,0.628 -2.142,1.167 -3.537,1.342c-1.395,0.174 -2.765,-0.036 -3.803,-0.424c-1.037,0.388 -2.407,0.598 -3.802,0.424c-1.396,-0.175 -2.653,-0.714 -3.537,-1.342c-1.113,0.118 -2.495,-0.016 -3.787,-0.527c-1.292,-0.51 -2.343,-1.339 -3.007,-2.16c-1.108,-0.16 -2.399,-0.628 -3.491,-1.437c-1.093,-0.81 -1.859,-1.865 -2.256,-2.82c-1.019,-0.425 -2.124,-1.193 -2.936,-2.241c-0.812,-1.047 -1.237,-2.252 -1.336,-3.269c-0.855,-0.66 -1.691,-1.671 -2.163,-2.879c-0.471,-1.208 -0.524,-2.473 -0.318,-3.476c-0.628,-0.846 -1.133,-2.024 -1.229,-3.304c-0.096,-1.279 0.228,-2.509 0.723,-3.425c-0.353,-0.968 -0.491,-2.227 -0.204,-3.483c0.286,-1.255 0.963,-2.36 1.712,-3.12c-0.054,-1.02 0.187,-2.266 0.835,-3.404c0.648,-1.139 1.627,-2.037 2.573,-2.584c0.25,-0.995 0.852,-2.136 1.813,-3.073c0.961,-0.937 2.17,-1.561 3.243,-1.857c0.536,-0.896 1.453,-1.847 2.657,-2.513c1.203,-0.666 2.552,-0.97 3.673,-0.991c0.782,-0.732 1.947,-1.422 3.303,-1.768c1.356,-0.346 2.745,-0.307 3.83,-0.052Z" style="fill:none;stroke:#eee;stroke-opacity:0.4;stroke-width:0.55px;"/><g><ellipse cx="129.4" cy="77.066" rx="4.565" ry="4.25" style="fill:#383838;"/><ellipse cx="128.589" cy="78.338" rx="0.435" ry="0.488" style="fill:#d2d2d2;"/><circle cx="126.91" cy="75.821" r="1.245" style="fill:#dcdcdc;"/></g><g><ellipse cx="165.119" cy="77.066" rx="4.565" ry="4.25" style="fill:#383838;"/><ellipse cx="164.308" cy="78.338" rx="0.435" ry="0.488" style="fill:#d2d2d2;"/><circle cx="162.628" cy="75.821" r="1.245" style="fill:#dcdcdc;"/></g><ellipse cx="169.684" cy="82.817" rx="3.943" ry="1.501" style="fill:#fea9ce;"/><ellipse cx="125.457" cy="82.817" rx="3.943" ry="1.501" style="fill:#fea9ce;"/><path d="M143.269,81.699c0.771,1.395 2.051,2.232 3.423,2.236c1.371,0.004 2.656,-0.825 3.435,-2.216l-6.858,-0.02Z" style="fill:#4b4b4b;"/></g><g id="sushi1" serif:id="sushi"><path d="M91.789,20.307c1.859,-0.921 4.373,-1.653 7.065,-1.787c2.692,-0.135 5.266,0.344 7.208,1.075c2.09,-0.491 4.743,-0.659 7.364,-0.208c2.621,0.45 4.923,1.469 6.534,2.596c2.166,-0.025 4.76,0.384 7.116,1.385c2.356,1.002 4.214,2.485 5.375,3.925c2.08,0.442 4.425,1.398 6.34,2.877c1.916,1.478 3.193,3.316 3.817,4.961c1.841,0.878 3.762,2.31 5.095,4.155c1.334,1.846 1.934,3.902 1.976,5.631c1.466,1.247 2.819,3.049 3.472,5.125c0.652,2.075 0.532,4.198 -0.012,5.882c0.981,1.524 1.668,3.562 1.591,5.714c-0.077,2.153 -0.909,4.183 -1.998,5.698c0.423,1.689 0.392,3.811 -0.409,5.88c-0.8,2.069 -2.282,3.858 -3.836,5.091c-0.165,1.728 -0.912,3.778 -2.377,5.61c-1.465,1.832 -3.487,3.246 -5.39,4.106c-0.742,1.638 -2.15,3.464 -4.17,4.923c-2.021,1.46 -4.433,2.394 -6.544,2.817c-1.264,1.428 -3.227,2.893 -5.653,3.872c-2.426,0.979 -5.05,1.364 -7.213,1.318c-1.691,1.112 -4.064,2.109 -6.717,2.534c-2.652,0.425 -5.292,0.233 -7.346,-0.278c-1.994,0.713 -4.601,1.167 -7.283,1.007c-2.681,-0.159 -5.142,-0.915 -6.935,-1.853c-2.148,0.261 -4.797,0.139 -7.309,-0.594c-2.511,-0.732 -4.61,-1.995 -6.01,-3.291c-2.143,-0.21 -4.636,-0.9 -6.791,-2.151c-2.156,-1.252 -3.738,-2.928 -4.639,-4.485c-1.98,-0.666 -4.132,-1.871 -5.772,-3.549c-1.64,-1.677 -2.587,-3.643 -2.924,-5.346c-1.668,-1.072 -3.321,-2.704 -4.323,-4.683c-1.002,-1.979 -1.245,-4.088 -0.992,-5.811c-1.234,-1.399 -2.264,-3.336 -2.554,-5.47c-0.291,-2.134 0.19,-4.23 1.014,-5.845c-0.709,-1.621 -1.04,-3.721 -0.597,-5.852c0.443,-2.13 1.611,-4.058 2.945,-5.444c-0.13,-1.725 0.262,-3.831 1.406,-5.8c1.143,-1.969 2.911,-3.585 4.656,-4.641c0.458,-1.699 1.546,-3.655 3.305,-5.316c1.759,-1.662 3.997,-2.847 6.023,-3.494c1.012,-1.548 2.713,-3.209 4.957,-4.439c2.245,-1.231 4.786,-1.897 6.943,-2.087c1.492,-1.282 3.68,-2.524 6.243,-3.233c2.564,-0.709 5.22,-0.806 7.349,-0.525Z" style="fill:#fcfcfc;stroke:#eee;stroke-width:1px;"/><path d="M86.783,21.891c1.615,-0.81 3.778,-1.405 6.065,-1.405c2.288,0 4.45,0.595 6.066,1.405c1.792,-0.379 4.048,-0.414 6.251,0.155c2.203,0.569 4.111,1.679 5.429,2.861c1.837,0.081 4.02,0.608 5.975,1.704c1.954,1.095 3.467,2.638 4.39,4.104c1.745,0.535 3.692,1.585 5.254,3.126c1.561,1.541 2.566,3.403 3.026,5.043c1.524,0.949 3.091,2.445 4.143,4.317c1.053,1.872 1.475,3.914 1.438,5.609c1.189,1.292 2.26,3.122 2.726,5.186c0.465,2.064 0.274,4.136 -0.258,5.758c0.767,1.541 1.263,3.569 1.106,5.672c-0.156,2.104 -0.947,4.051 -1.934,5.481c0.287,1.674 0.171,3.75 -0.595,5.737c-0.766,1.986 -2.098,3.665 -3.467,4.796c-0.214,1.683 -0.934,3.654 -2.253,5.376c-1.319,1.722 -3.093,3.007 -4.743,3.756c-0.698,1.568 -1.968,3.287 -3.743,4.617c-1.775,1.331 -3.859,2.127 -5.667,2.438c-1.131,1.336 -2.857,2.675 -4.956,3.515c-2.098,0.84 -4.338,1.089 -6.17,0.938c-1.481,1.006 -3.535,1.866 -5.801,2.153c-2.267,0.287 -4.497,-0.03 -6.217,-0.63c-1.72,0.6 -3.95,0.917 -6.216,0.63c-2.266,-0.287 -4.321,-1.147 -5.801,-2.153c-1.832,0.151 -4.072,-0.098 -6.171,-0.938c-2.098,-0.84 -3.824,-2.179 -4.956,-3.515c-1.808,-0.311 -3.892,-1.107 -5.666,-2.438c-1.775,-1.33 -3.045,-3.049 -3.743,-4.617c-1.65,-0.749 -3.424,-2.034 -4.743,-3.756c-1.32,-1.722 -2.04,-3.693 -2.253,-5.376c-1.369,-1.131 -2.701,-2.81 -3.467,-4.796c-0.766,-1.987 -0.883,-4.063 -0.595,-5.737c-0.988,-1.43 -1.779,-3.377 -1.935,-5.481c-0.156,-2.103 0.34,-4.131 1.107,-5.672c-0.532,-1.622 -0.724,-3.694 -0.258,-5.758c0.465,-2.064 1.537,-3.894 2.726,-5.186c-0.037,-1.695 0.385,-3.737 1.437,-5.609c1.053,-1.872 2.62,-3.368 4.144,-4.317c0.46,-1.64 1.464,-3.502 3.026,-5.043c1.561,-1.541 3.509,-2.591 5.254,-3.126c0.923,-1.466 2.435,-3.009 4.39,-4.104c1.955,-1.096 4.137,-1.623 5.974,-1.704c1.319,-1.182 3.227,-2.292 5.429,-2.861c2.203,-0.569 4.459,-0.534 6.252,-0.155Z" style="fill:#fcfcfc;stroke:#eee;stroke-width:1px;"/><path d="M88.729,35.124c0.97,-0.512 2.296,-0.891 3.704,-0.891c1.409,0 2.735,0.379 3.704,0.891c1.086,-0.255 2.475,-0.294 3.831,0.052c1.356,0.346 2.521,1.036 3.303,1.768c1.121,0.02 2.47,0.324 3.673,0.991c1.203,0.666 2.121,1.617 2.656,2.513c1.074,0.295 2.283,0.92 3.244,1.857c0.961,0.937 1.563,2.077 1.813,3.072c0.946,0.548 1.925,1.446 2.573,2.585c0.648,1.138 0.889,2.384 0.835,3.404c0.749,0.76 1.425,1.865 1.712,3.12c0.286,1.255 0.149,2.515 -0.205,3.483c0.496,0.916 0.82,2.146 0.724,3.425c-0.096,1.279 -0.601,2.458 -1.229,3.304c0.206,1.003 0.153,2.268 -0.318,3.476c-0.472,1.208 -1.308,2.219 -2.163,2.879c-0.099,1.017 -0.524,2.221 -1.337,3.269c-0.812,1.047 -1.916,1.816 -2.935,2.241c-0.397,0.955 -1.163,2.01 -2.256,2.819c-1.092,0.81 -2.383,1.278 -3.491,1.437c-0.665,0.822 -1.716,1.65 -3.007,2.161c-1.292,0.511 -2.674,0.645 -3.788,0.526c-0.883,0.628 -2.141,1.168 -3.536,1.342c-1.395,0.175 -2.766,-0.036 -3.803,-0.423c-1.037,0.387 -2.407,0.598 -3.803,0.423c-1.395,-0.174 -2.652,-0.714 -3.536,-1.342c-1.113,0.119 -2.495,-0.015 -3.787,-0.526c-1.292,-0.511 -2.343,-1.339 -3.008,-2.161c-1.107,-0.159 -2.398,-0.627 -3.491,-1.437c-1.092,-0.809 -1.858,-1.864 -2.255,-2.819c-1.019,-0.425 -2.124,-1.194 -2.936,-2.241c-0.812,-1.048 -1.237,-2.252 -1.336,-3.269c-0.855,-0.66 -1.691,-1.671 -2.163,-2.879c-0.472,-1.208 -0.524,-2.473 -0.318,-3.476c-0.628,-0.846 -1.133,-2.025 -1.229,-3.304c-0.096,-1.279 0.228,-2.509 0.723,-3.425c-0.354,-0.968 -0.491,-2.228 -0.204,-3.483c0.286,-1.255 0.963,-2.36 1.712,-3.12c-0.054,-1.02 0.187,-2.266 0.835,-3.404c0.648,-1.139 1.627,-2.037 2.573,-2.585c0.25,-0.995 0.851,-2.135 1.813,-3.072c0.961,-0.937 2.17,-1.562 3.243,-1.857c0.536,-0.896 1.453,-1.847 2.656,-2.513c1.204,-0.667 2.553,-0.971 3.674,-0.991c0.781,-0.732 1.946,-1.422 3.302,-1.768c1.357,-0.346 2.746,-0.307 3.831,-0.052Z" style="fill:#ffdc00;"/><clipPath id="_clip3"><path d="M88.729,35.124c0.97,-0.512 2.296,-0.891 3.704,-0.891c1.409,0 2.735,0.379 3.704,0.891c1.086,-0.255 2.475,-0.294 3.831,0.052c1.356,0.346 2.521,1.036 3.303,1.768c1.121,0.02 2.47,0.324 3.673,0.991c1.203,0.666 2.121,1.617 2.656,2.513c1.074,0.295 2.283,0.92 3.244,1.857c0.961,0.937 1.563,2.077 1.813,3.072c0.946,0.548 1.925,1.446 2.573,2.585c0.648,1.138 0.889,2.384 0.835,3.404c0.749,0.76 1.425,1.865 1.712,3.12c0.286,1.255 0.149,2.515 -0.205,3.483c0.496,0.916 0.82,2.146 0.724,3.425c-0.096,1.279 -0.601,2.458 -1.229,3.304c0.206,1.003 0.153,2.268 -0.318,3.476c-0.472,1.208 -1.308,2.219 -2.163,2.879c-0.099,1.017 -0.524,2.221 -1.337,3.269c-0.812,1.047 -1.916,1.816 -2.935,2.241c-0.397,0.955 -1.163,2.01 -2.256,2.819c-1.092,0.81 -2.383,1.278 -3.491,1.437c-0.665,0.822 -1.716,1.65 -3.007,2.161c-1.292,0.511 -2.674,0.645 -3.788,0.526c-0.883,0.628 -2.141,1.168 -3.536,1.342c-1.395,0.175 -2.766,-0.036 -3.803,-0.423c-1.037,0.387 -2.407,0.598 -3.803,0.423c-1.395,-0.174 -2.652,-0.714 -3.536,-1.342c-1.113,0.119 -2.495,-0.015 -3.787,-0.526c-1.292,-0.511 -2.343,-1.339 -3.008,-2.161c-1.107,-0.159 -2.398,-0.627 -3.491,-1.437c-1.092,-0.809 -1.858,-1.864 -2.255,-2.819c-1.019,-0.425 -2.124,-1.194 -2.936,-2.241c-0.812,-1.048 -1.237,-2.252 -1.336,-3.269c-0.855,-0.66 -1.691,-1.671 -2.163,-2.879c-0.472,-1.208 -0.524,-2.473 -0.318,-3.476c-0.628,-0.846 -1.133,-2.025 -1.229,-3.304c-0.096,-1.279 0.228,-2.509 0.723,-3.425c-0.354,-0.968 -0.491,-2.228 -0.204,-3.483c0.286,-1.255 0.963,-2.36 1.712,-3.12c-0.054,-1.02 0.187,-2.266 0.835,-3.404c0.648,-1.139 1.627,-2.037 2.573,-2.585c0.25,-0.995 0.851,-2.135 1.813,-3.072c0.961,-0.937 2.17,-1.562 3.243,-1.857c0.536,-0.896 1.453,-1.847 2.656,-2.513c1.204,-0.667 2.553,-0.971 3.674,-0.991c0.781,-0.732 1.946,-1.422 3.302,-1.768c1.357,-0.346 2.746,-0.307 3.831,-0.052Z"/></clipPath><g clip-path="url(#_clip3)"><path d="M107.911,91.379c2.231,-3.941 3.406,-8.412 3.406,-12.962c0,-14.307 -11.391,-25.923 -25.42,-25.923c-14.03,0 -25.42,11.616 -25.42,25.923c0,4.55 1.174,9.021 3.405,12.962l44.029,0Z" style="fill:#8d1f38;"/><clipPath id="_clip4"><path d="M107.911,91.379c2.231,-3.941 3.406,-8.412 3.406,-12.962c0,-14.307 -11.391,-25.923 -25.42,-25.923c-14.03,0 -25.42,11.616 -25.42,25.923c0,4.55 1.174,9.021 3.405,12.962l44.029,0Z"/></clipPath><g clip-path="url(#_clip4)"><path d="M75.625,55.009l5.058,30.723l4.398,-33.238c0,0 4.586,29.735 5.277,34.993" style="fill:none;stroke:#6b1427;stroke-width:1.5px;"/></g><path d="M135.596,27.593c-26.8,0 -48.558,13.833 -48.558,30.871c0,17.038 21.758,30.871 48.558,30.871c-8.04,-7.203 -14.568,-18.556 -14.568,-30.871c0,-12.315 6.528,-23.668 14.568,-30.871Z" style="fill:#90bc95;"/><path d="M131.03,31.743c-18.782,0 -34.031,11.185 -34.031,24.961c0,13.777 15.249,24.961 34.031,24.961c-5.634,-5.824 -10.209,-15.004 -10.209,-24.961c0,-9.957 4.575,-19.137 10.209,-24.961Z" style="fill:#c2e9c7;"/></g><path d="M88.729,35.124c0.97,-0.512 2.296,-0.891 3.704,-0.891c1.409,0 2.735,0.379 3.704,0.891c1.086,-0.255 2.475,-0.294 3.831,0.052c1.356,0.346 2.521,1.036 3.303,1.768c1.121,0.02 2.47,0.324 3.673,0.991c1.203,0.666 2.121,1.617 2.656,2.513c1.074,0.295 2.283,0.92 3.244,1.857c0.961,0.937 1.563,2.077 1.813,3.072c0.946,0.548 1.925,1.446 2.573,2.585c0.648,1.138 0.889,2.384 0.835,3.404c0.749,0.76 1.425,1.865 1.712,3.12c0.286,1.255 0.149,2.515 -0.205,3.483c0.496,0.916 0.82,2.146 0.724,3.425c-0.096,1.279 -0.601,2.458 -1.229,3.304c0.206,1.003 0.153,2.268 -0.318,3.476c-0.472,1.208 -1.308,2.219 -2.163,2.879c-0.099,1.017 -0.524,2.221 -1.337,3.269c-0.812,1.047 -1.916,1.816 -2.935,2.241c-0.397,0.955 -1.163,2.01 -2.256,2.819c-1.092,0.81 -2.383,1.278 -3.491,1.437c-0.665,0.822 -1.716,1.65 -3.007,2.161c-1.292,0.511 -2.674,0.645 -3.788,0.526c-0.883,0.628 -2.141,1.168 -3.536,1.342c-1.395,0.175 -2.766,-0.036 -3.803,-0.423c-1.037,0.387 -2.407,0.598 -3.803,0.423c-1.395,-0.174 -2.652,-0.714 -3.536,-1.342c-1.113,0.119 -2.495,-0.015 -3.787,-0.526c-1.292,-0.511 -2.343,-1.339 -3.008,-2.161c-1.107,-0.159 -2.398,-0.627 -3.491,-1.437c-1.092,-0.809 -1.858,-1.864 -2.255,-2.819c-1.019,-0.425 -2.124,-1.194 -2.936,-2.241c-0.812,-1.048 -1.237,-2.252 -1.336,-3.269c-0.855,-0.66 -1.691,-1.671 -2.163,-2.879c-0.472,-1.208 -0.524,-2.473 -0.318,-3.476c-0.628,-0.846 -1.133,-2.025 -1.229,-3.304c-0.096,-1.279 0.228,-2.509 0.723,-3.425c-0.354,-0.968 -0.491,-2.228 -0.204,-3.483c0.286,-1.255 0.963,-2.36 1.712,-3.12c-0.054,-1.02 0.187,-2.266 0.835,-3.404c0.648,-1.139 1.627,-2.037 2.573,-2.585c0.25,-0.995 0.851,-2.135 1.813,-3.072c0.961,-0.937 2.17,-1.562 3.243,-1.857c0.536,-0.896 1.453,-1.847 2.656,-2.513c1.204,-0.667 2.553,-0.971 3.674,-0.991c0.781,-0.732 1.946,-1.422 3.302,-1.768c1.357,-0.346 2.746,-0.307 3.831,-0.052Z" style="fill:none;stroke:#eee;stroke-opacity:0.4;stroke-width:0.55px;"/><g><ellipse cx="73.887" cy="85.085" rx="4.565" ry="4.25" style="fill:#383838;"/><ellipse cx="73.076" cy="86.357" rx="0.435" ry="0.488" style="fill:#d2d2d2;"/><circle cx="71.397" cy="83.84" r="1.245" style="fill:#dcdcdc;"/></g><g><ellipse cx="109.605" cy="85.085" rx="4.565" ry="4.25" style="fill:#383838;"/><ellipse cx="108.795" cy="86.357" rx="0.435" ry="0.488" style="fill:#d2d2d2;"/><circle cx="107.115" cy="83.84" r="1.245" style="fill:#dcdcdc;"/></g><ellipse cx="114.171" cy="90.836" rx="3.943" ry="1.501" style="fill:#fea9ce;"/><ellipse cx="69.944" cy="90.836" rx="3.943" ry="1.501" style="fill:#fea9ce;"/><path d="M87.756,89.717c0.771,1.396 2.051,2.233 3.422,2.237c1.372,0.004 2.657,-0.825 3.436,-2.216l-6.858,-0.021Z" style="fill:#4b4b4b;"/></g><g id="sushi2" serif:id="sushi"><path d="M184.581,22.367c1.859,-0.92 4.373,-1.652 7.065,-1.787c2.692,-0.134 5.266,0.345 7.208,1.076c2.09,-0.491 4.743,-0.659 7.364,-0.209c2.621,0.451 4.923,1.47 6.534,2.596c2.166,-0.025 4.76,0.385 7.116,1.386c2.356,1.002 4.214,2.485 5.375,3.924c2.08,0.443 4.425,1.399 6.34,2.877c1.916,1.479 3.193,3.317 3.817,4.962c1.841,0.877 3.762,2.309 5.095,4.155c1.334,1.845 1.934,3.902 1.976,5.631c1.466,1.247 2.819,3.049 3.472,5.124c0.652,2.076 0.532,4.198 -0.012,5.883c0.981,1.524 1.668,3.562 1.591,5.714c-0.077,2.152 -0.909,4.183 -1.998,5.698c0.423,1.689 0.392,3.811 -0.409,5.88c-0.8,2.069 -2.282,3.857 -3.836,5.091c-0.165,1.727 -0.912,3.777 -2.377,5.61c-1.465,1.832 -3.487,3.245 -5.39,4.105c-0.742,1.639 -2.149,3.464 -4.17,4.924c-2.021,1.46 -4.433,2.394 -6.544,2.817c-1.263,1.427 -3.227,2.893 -5.653,3.872c-2.426,0.979 -5.05,1.364 -7.213,1.318c-1.691,1.111 -4.064,2.108 -6.717,2.534c-2.652,0.425 -5.292,0.233 -7.346,-0.278c-1.994,0.712 -4.601,1.167 -7.283,1.007c-2.681,-0.159 -5.142,-0.915 -6.935,-1.853c-2.148,0.261 -4.797,0.139 -7.309,-0.594c-2.511,-0.733 -4.61,-1.996 -6.01,-3.291c-2.143,-0.211 -4.636,-0.9 -6.791,-2.151c-2.156,-1.252 -3.738,-2.928 -4.639,-4.485c-1.98,-0.666 -4.132,-1.871 -5.772,-3.549c-1.64,-1.678 -2.587,-3.643 -2.924,-5.346c-1.668,-1.072 -3.321,-2.704 -4.323,-4.683c-1.002,-1.98 -1.245,-4.088 -0.992,-5.811c-1.234,-1.399 -2.264,-3.337 -2.554,-5.471c-0.291,-2.134 0.19,-4.229 1.014,-5.844c-0.709,-1.622 -1.04,-3.721 -0.597,-5.852c0.443,-2.13 1.611,-4.058 2.945,-5.445c-0.13,-1.724 0.263,-3.83 1.406,-5.799c1.143,-1.969 2.912,-3.585 4.656,-4.641c0.458,-1.699 1.546,-3.655 3.305,-5.317c1.759,-1.661 3.997,-2.846 6.023,-3.493c1.012,-1.548 2.713,-3.209 4.957,-4.44c2.245,-1.23 4.786,-1.896 6.943,-2.086c1.492,-1.282 3.68,-2.525 6.243,-3.233c2.564,-0.709 5.22,-0.806 7.349,-0.526Z" style="fill:#fcfcfc;stroke:#eee;stroke-width:1px;"/><path d="M179.575,23.952c1.615,-0.811 3.778,-1.405 6.065,-1.405c2.288,0 4.45,0.594 6.066,1.405c1.792,-0.379 4.048,-0.414 6.251,0.155c2.203,0.569 4.111,1.679 5.429,2.86c1.837,0.082 4.02,0.609 5.975,1.704c1.954,1.096 3.467,2.639 4.39,4.105c1.745,0.535 3.692,1.585 5.254,3.126c1.561,1.54 2.566,3.402 3.026,5.043c1.524,0.949 3.091,2.445 4.144,4.317c1.052,1.871 1.474,3.914 1.437,5.608c1.189,1.293 2.261,3.123 2.726,5.187c0.465,2.064 0.274,4.136 -0.258,5.758c0.767,1.541 1.263,3.569 1.106,5.672c-0.156,2.103 -0.947,4.051 -1.934,5.481c0.287,1.673 0.171,3.75 -0.595,5.736c-0.766,1.987 -2.098,3.665 -3.467,4.797c-0.214,1.683 -0.934,3.653 -2.253,5.376c-1.319,1.722 -3.093,3.007 -4.743,3.756c-0.698,1.568 -1.968,3.286 -3.743,4.617c-1.775,1.33 -3.859,2.127 -5.667,2.438c-1.131,1.336 -2.857,2.675 -4.956,3.515c-2.098,0.84 -4.338,1.088 -6.17,0.938c-1.481,1.006 -3.535,1.866 -5.801,2.153c-2.267,0.287 -4.497,-0.031 -6.217,-0.631c-1.72,0.6 -3.95,0.918 -6.216,0.631c-2.266,-0.287 -4.321,-1.147 -5.801,-2.153c-1.832,0.15 -4.072,-0.098 -6.171,-0.938c-2.098,-0.84 -3.824,-2.179 -4.956,-3.515c-1.807,-0.311 -3.892,-1.108 -5.666,-2.438c-1.775,-1.331 -3.045,-3.049 -3.743,-4.617c-1.65,-0.749 -3.424,-2.034 -4.743,-3.756c-1.32,-1.723 -2.04,-3.693 -2.253,-5.376c-1.369,-1.132 -2.701,-2.81 -3.467,-4.797c-0.766,-1.986 -0.883,-4.063 -0.595,-5.736c-0.988,-1.43 -1.779,-3.378 -1.935,-5.481c-0.156,-2.103 0.34,-4.131 1.107,-5.672c-0.532,-1.622 -0.724,-3.694 -0.258,-5.758c0.465,-2.064 1.537,-3.894 2.726,-5.187c-0.037,-1.694 0.385,-3.737 1.437,-5.608c1.053,-1.872 2.62,-3.368 4.144,-4.317c0.46,-1.641 1.464,-3.503 3.026,-5.043c1.561,-1.541 3.509,-2.591 5.254,-3.126c0.923,-1.466 2.435,-3.009 4.39,-4.105c1.955,-1.095 4.137,-1.622 5.974,-1.704c1.319,-1.181 3.227,-2.291 5.429,-2.86c2.203,-0.569 4.459,-0.534 6.252,-0.155Z" style="fill:#fcfcfc;stroke:#eee;stroke-width:1px;"/><path d="M181.521,37.185c0.97,-0.513 2.296,-0.891 3.704,-0.891c1.409,0 2.735,0.378 3.704,0.891c1.086,-0.255 2.475,-0.294 3.831,0.052c1.356,0.346 2.521,1.036 3.303,1.768c1.121,0.02 2.47,0.324 3.673,0.99c1.203,0.667 2.121,1.617 2.656,2.514c1.074,0.295 2.283,0.919 3.244,1.856c0.961,0.937 1.563,2.078 1.813,3.073c0.946,0.548 1.925,1.446 2.573,2.584c0.648,1.139 0.889,2.385 0.835,3.404c0.749,0.76 1.425,1.866 1.712,3.121c0.287,1.255 0.149,2.514 -0.205,3.483c0.496,0.915 0.82,2.146 0.724,3.425c-0.096,1.279 -0.601,2.458 -1.229,3.304c0.206,1.003 0.153,2.267 -0.318,3.476c-0.472,1.208 -1.308,2.219 -2.163,2.879c-0.099,1.016 -0.524,2.221 -1.337,3.269c-0.812,1.047 -1.916,1.815 -2.935,2.241c-0.397,0.954 -1.163,2.01 -2.256,2.819c-1.092,0.809 -2.383,1.278 -3.491,1.437c-0.665,0.822 -1.715,1.65 -3.007,2.161c-1.292,0.511 -2.674,0.645 -3.788,0.526c-0.883,0.628 -2.141,1.168 -3.536,1.342c-1.395,0.175 -2.766,-0.036 -3.803,-0.423c-1.037,0.387 -2.407,0.598 -3.802,0.423c-1.396,-0.174 -2.653,-0.714 -3.537,-1.342c-1.113,0.119 -2.495,-0.015 -3.787,-0.526c-1.292,-0.511 -2.343,-1.339 -3.008,-2.161c-1.107,-0.159 -2.398,-0.628 -3.491,-1.437c-1.092,-0.809 -1.858,-1.865 -2.255,-2.819c-1.019,-0.426 -2.124,-1.194 -2.936,-2.241c-0.812,-1.048 -1.237,-2.253 -1.336,-3.269c-0.855,-0.66 -1.691,-1.671 -2.163,-2.879c-0.472,-1.209 -0.524,-2.473 -0.318,-3.476c-0.628,-0.846 -1.133,-2.025 -1.229,-3.304c-0.096,-1.279 0.228,-2.51 0.723,-3.425c-0.354,-0.969 -0.491,-2.228 -0.204,-3.483c0.286,-1.255 0.963,-2.361 1.712,-3.121c-0.054,-1.019 0.187,-2.265 0.835,-3.404c0.648,-1.138 1.627,-2.036 2.573,-2.584c0.25,-0.995 0.851,-2.136 1.813,-3.073c0.961,-0.937 2.17,-1.561 3.243,-1.856c0.536,-0.897 1.453,-1.847 2.657,-2.514c1.203,-0.666 2.552,-0.97 3.673,-0.99c0.781,-0.732 1.946,-1.422 3.303,-1.768c1.356,-0.346 2.745,-0.307 3.83,-0.052Z" style="fill:#ffdc00;"/><clipPath id="_clip5"><path d="M181.521,37.185c0.97,-0.513 2.296,-0.891 3.704,-0.891c1.409,0 2.735,0.378 3.704,0.891c1.086,-0.255 2.475,-0.294 3.831,0.052c1.356,0.346 2.521,1.036 3.303,1.768c1.121,0.02 2.47,0.324 3.673,0.99c1.203,0.667 2.121,1.617 2.656,2.514c1.074,0.295 2.283,0.919 3.244,1.856c0.961,0.937 1.563,2.078 1.813,3.073c0.946,0.548 1.925,1.446 2.573,2.584c0.648,1.139 0.889,2.385 0.835,3.404c0.749,0.76 1.425,1.866 1.712,3.121c0.287,1.255 0.149,2.514 -0.205,3.483c0.496,0.915 0.82,2.146 0.724,3.425c-0.096,1.279 -0.601,2.458 -1.229,3.304c0.206,1.003 0.153,2.267 -0.318,3.476c-0.472,1.208 -1.308,2.219 -2.163,2.879c-0.099,1.016 -0.524,2.221 -1.337,3.269c-0.812,1.047 -1.916,1.815 -2.935,2.241c-0.397,0.954 -1.163,2.01 -2.256,2.819c-1.092,0.809 -2.383,1.278 -3.491,1.437c-0.665,0.822 -1.715,1.65 -3.007,2.161c-1.292,0.511 -2.674,0.645 -3.788,0.526c-0.883,0.628 -2.141,1.168 -3.536,1.342c-1.395,0.175 -2.766,-0.036 -3.803,-0.423c-1.037,0.387 -2.407,0.598 -3.802,0.423c-1.396,-0.174 -2.653,-0.714 -3.537,-1.342c-1.113,0.119 -2.495,-0.015 -3.787,-0.526c-1.292,-0.511 -2.343,-1.339 -3.008,-2.161c-1.107,-0.159 -2.398,-0.628 -3.491,-1.437c-1.092,-0.809 -1.858,-1.865 -2.255,-2.819c-1.019,-0.426 -2.124,-1.194 -2.936,-2.241c-0.812,-1.048 -1.237,-2.253 -1.336,-3.269c-0.855,-0.66 -1.691,-1.671 -2.163,-2.879c-0.472,-1.209 -0.524,-2.473 -0.318,-3.476c-0.628,-0.846 -1.133,-2.025 -1.229,-3.304c-0.096,-1.279 0.228,-2.51 0.723,-3.425c-0.354,-0.969 -0.491,-2.228 -0.204,-3.483c0.286,-1.255 0.963,-2.361 1.712,-3.121c-0.054,-1.019 0.187,-2.265 0.835,-3.404c0.648,-1.138 1.627,-2.036 2.573,-2.584c0.25,-0.995 0.851,-2.136 1.813,-3.073c0.961,-0.937 2.17,-1.561 3.243,-1.856c0.536,-0.897 1.453,-1.847 2.657,-2.514c1.203,-0.666 2.552,-0.97 3.673,-0.99c0.781,-0.732 1.946,-1.422 3.303,-1.768c1.356,-0.346 2.745,-0.307 3.83,-0.052Z"/></clipPath><g clip-path="url(#_clip5)"><path d="M200.703,93.439c2.231,-3.941 3.406,-8.411 3.406,-12.961c0,-14.307 -11.391,-25.923 -25.42,-25.923c-14.03,0 -25.42,11.616 -25.42,25.923c0,4.55 1.174,9.02 3.405,12.961l44.029,0Z" style="fill:#8d1f38;"/><clipPath id="_clip6"><path d="M200.703,93.439c2.231,-3.941 3.406,-8.411 3.406,-12.961c0,-14.307 -11.391,-25.923 -25.42,-25.923c-14.03,0 -25.42,11.616 -25.42,25.923c0,4.55 1.174,9.02 3.405,12.961l44.029,0Z"/></clipPath><g clip-path="url(#_clip6)"><path d="M168.417,57.069l5.058,30.724l4.398,-33.238c0,0 4.586,29.735 5.277,34.993" style="fill:none;stroke:#6b1427;stroke-width:1.5px;"/></g><path d="M228.388,29.654c-26.8,0 -48.558,13.832 -48.558,30.871c0,17.038 21.758,30.871 48.558,30.871c-8.04,-7.203 -14.568,-18.557 -14.568,-30.871c0,-12.315 6.528,-23.668 14.568,-30.871Z" style="fill:#90bc95;"/><path d="M223.822,33.804c-18.782,0 -34.031,11.184 -34.031,24.961c0,13.776 15.249,24.961 34.031,24.961c-5.634,-5.824 -10.209,-15.004 -10.209,-24.961c0,-9.957 4.575,-19.137 10.209,-24.961Z" style="fill:#c2e9c7;"/></g><path d="M181.521,37.185c0.97,-0.513 2.296,-0.891 3.704,-0.891c1.409,0 2.735,0.378 3.704,0.891c1.086,-0.255 2.475,-0.294 3.831,0.052c1.356,0.346 2.521,1.036 3.303,1.768c1.121,0.02 2.47,0.324 3.673,0.99c1.203,0.667 2.121,1.617 2.656,2.514c1.074,0.295 2.283,0.919 3.244,1.856c0.961,0.937 1.563,2.078 1.813,3.073c0.946,0.548 1.925,1.446 2.573,2.584c0.648,1.139 0.889,2.385 0.835,3.404c0.749,0.76 1.425,1.866 1.712,3.121c0.287,1.255 0.149,2.514 -0.205,3.483c0.496,0.915 0.82,2.146 0.724,3.425c-0.096,1.279 -0.601,2.458 -1.229,3.304c0.206,1.003 0.153,2.267 -0.318,3.476c-0.472,1.208 -1.308,2.219 -2.163,2.879c-0.099,1.016 -0.524,2.221 -1.337,3.269c-0.812,1.047 -1.916,1.815 -2.935,2.241c-0.397,0.954 -1.163,2.01 -2.256,2.819c-1.092,0.809 -2.383,1.278 -3.491,1.437c-0.665,0.822 -1.715,1.65 -3.007,2.161c-1.292,0.511 -2.674,0.645 -3.788,0.526c-0.883,0.628 -2.141,1.168 -3.536,1.342c-1.395,0.175 -2.766,-0.036 -3.803,-0.423c-1.037,0.387 -2.407,0.598 -3.802,0.423c-1.396,-0.174 -2.653,-0.714 -3.537,-1.342c-1.113,0.119 -2.495,-0.015 -3.787,-0.526c-1.292,-0.511 -2.343,-1.339 -3.008,-2.161c-1.107,-0.159 -2.398,-0.628 -3.491,-1.437c-1.092,-0.809 -1.858,-1.865 -2.255,-2.819c-1.019,-0.426 -2.124,-1.194 -2.936,-2.241c-0.812,-1.048 -1.237,-2.253 -1.336,-3.269c-0.855,-0.66 -1.691,-1.671 -2.163,-2.879c-0.472,-1.209 -0.524,-2.473 -0.318,-3.476c-0.628,-0.846 -1.133,-2.025 -1.229,-3.304c-0.096,-1.279 0.228,-2.51 0.723,-3.425c-0.354,-0.969 -0.491,-2.228 -0.204,-3.483c0.286,-1.255 0.963,-2.361 1.712,-3.121c-0.054,-1.019 0.187,-2.265 0.835,-3.404c0.648,-1.138 1.627,-2.036 2.573,-2.584c0.25,-0.995 0.851,-2.136 1.813,-3.073c0.961,-0.937 2.17,-1.561 3.243,-1.856c0.536,-0.897 1.453,-1.847 2.657,-2.514c1.203,-0.666 2.552,-0.97 3.673,-0.99c0.781,-0.732 1.946,-1.422 3.303,-1.768c1.356,-0.346 2.745,-0.307 3.83,-0.052Z" style="fill:none;stroke:#eee;stroke-opacity:0.4;stroke-width:0.55px;"/><g><ellipse cx="166.679" cy="87.146" rx="4.565" ry="4.25" style="fill:#383838;"/><ellipse cx="165.868" cy="88.417" rx="0.435" ry="0.488" style="fill:#d2d2d2;"/><circle cx="164.189" cy="85.901" r="1.245" style="fill:#dcdcdc;"/></g><g><ellipse cx="202.398" cy="87.146" rx="4.565" ry="4.25" style="fill:#383838;"/><ellipse cx="201.587" cy="88.417" rx="0.435" ry="0.488" style="fill:#d2d2d2;"/><circle cx="199.907" cy="85.901" r="1.245" style="fill:#dcdcdc;"/></g><ellipse cx="206.963" cy="92.896" rx="3.943" ry="1.501" style="fill:#fea9ce;"/><ellipse cx="162.736" cy="92.896" rx="3.943" ry="1.501" style="fill:#fea9ce;"/><path d="M180.548,91.778c0.771,1.396 2.051,2.233 3.422,2.237c1.372,0.004 2.657,-0.825 3.436,-2.216l-6.858,-0.021Z" style="fill:#4b4b4b;"/></g></g></svg>