<?xml version="1.0" encoding="UTF-8" standalone="no"?><!DOCTYPE svg PUBLIC "-//W3C//DTD SVG 1.1//EN" "http://www.w3.org/Graphics/SVG/1.1/DTD/svg11.dtd"><svg width="100%" height="100%" viewBox="0 0 286 89" version="1.1" xmlns="http://www.w3.org/2000/svg" xmlns:xlink="http://www.w3.org/1999/xlink" xml:space="preserve" xmlns:serif="http://www.serif.com/" style="fill-rule:evenodd;clip-rule:evenodd;stroke-linejoin:round;stroke-miterlimit:1.41421;"><g id="plate"><ellipse cx="141.965" cy="49.846" rx="140.212" ry="34.116" style="fill:#e1d7cd;"/><ellipse cx="141.92" cy="47.693" rx="140.212" ry="36.269" style="fill:#e1d7cd;"/><ellipse cx="141.92" cy="44.529" rx="140.212" ry="34.116" style="fill:#b4cfa5;"/><ellipse cx="144.677" cy="42.818" rx="113.886" ry="23.219" style="fill:#e1d7cd;"/></g><g id="green-sushi"><g id="sushi"><path d="M47.177,21.26c1.261,-0.948 2.819,-1.543 4.526,-1.627l101.164,-4.96c4.476,-0.22 8.292,3.161 8.516,7.546l0.812,15.887c0.224,4.384 -3.228,8.122 -7.704,8.341l-101.164,4.961c-2.599,0.127 -4.976,-0.96 -6.556,-2.752c-0.077,-0.082 -0.15,-0.169 -0.219,-0.26c-0.202,-0.249 -0.389,-0.511 -0.56,-0.785l-2.233,-3.14c-0.057,-0.08 -0.109,-0.161 -0.157,-0.244c-0.3,-0.311 -0.484,-0.731 -0.484,-1.193l0,-20.034c0,-0.961 0.796,-1.74 1.776,-1.74l2.283,0Z" style="fill:#fbfbfb;"/><clipPath id="_clip1"><path d="M47.177,21.26c1.261,-0.948 2.819,-1.543 4.526,-1.627l101.164,-4.96c4.476,-0.22 8.292,3.161 8.516,7.546l0.812,15.887c0.224,4.384 -3.228,8.122 -7.704,8.341l-101.164,4.961c-2.599,0.127 -4.976,-0.96 -6.556,-2.752c-0.077,-0.082 -0.15,-0.169 -0.219,-0.26c-0.202,-0.249 -0.389,-0.511 -0.56,-0.785l-2.233,-3.14c-0.057,-0.08 -0.109,-0.161 -0.157,-0.244c-0.3,-0.311 -0.484,-0.731 -0.484,-1.193l0,-20.034c0,-0.961 0.796,-1.74 1.776,-1.74l2.283,0Z"/></clipPath><g clip-path="url(#_clip1)"><path d="M54.192,23.143c1.216,-1.218 2.718,-1.983 4.364,-2.091l97.54,-6.376c4.315,-0.283 7.994,4.064 8.21,9.7l0.783,20.422c0.216,5.636 -3.112,10.44 -7.428,10.722l-97.539,6.377c-2.507,0.164 -4.798,-1.234 -6.321,-3.538c-0.074,-0.105 -0.145,-0.216 -0.211,-0.333c-0.195,-0.321 -0.376,-0.658 -0.54,-1.009l-2.153,-4.038c-0.055,-0.102 -0.105,-0.206 -0.152,-0.312c-0.289,-0.401 -0.467,-0.941 -0.467,-1.534l0,-25.754c0,-1.234 0.768,-2.236 1.713,-2.236l2.201,0Z" style="fill:#e2e2e2;"/></g><g><ellipse cx="62.153" cy="38.76" rx="4.804" ry="4.472" style="fill:#383838;"/><ellipse cx="61.3" cy="40.098" rx="0.457" ry="0.514" style="fill:#d2d2d2;"/><circle cx="59.532" cy="37.45" r="1.31" style="fill:#dcdcdc;"/></g><g><ellipse cx="94.541" cy="38.456" rx="4.804" ry="4.472" style="fill:#383838;"/><ellipse cx="93.689" cy="39.794" rx="0.457" ry="0.514" style="fill:#d2d2d2;"/><circle cx="91.921" cy="37.146" r="1.31" style="fill:#dcdcdc;"/></g><path d="M75.033,39.666c0.73,1.191 1.942,1.905 3.241,1.909c1.298,0.004 2.515,-0.703 3.252,-1.889l-6.493,-0.02Z" style="fill:#4b4b4b;"/><ellipse cx="58.004" cy="44.811" rx="4.149" ry="1.579" style="fill:#fea9ce;"/><ellipse cx="98.69" cy="44.507" rx="4.149" ry="1.579" style="fill:#fea9ce;"/><path d="M40.857,13.07c0,-0.915 0.564,-1.529 1.637,-1.573l109.271,-4.562c1.834,-0.077 4.467,1.536 5.876,3.599l5.105,7.475c0.701,1.026 0.968,1.972 0.833,2.673c0.135,0.242 0.216,0.529 0.222,0.837l0.061,3.22c0.004,0.211 -0.027,0.413 -0.088,0.599c0.018,0.879 -0.509,1.471 -1.529,1.513l-110.087,4.596c-1.714,0.072 -4.175,-1.435 -5.491,-3.363l-4.772,-6.986c-0.51,-0.747 -0.774,-1.447 -0.807,-2.03c-0.17,-0.309 -0.271,-0.673 -0.278,-1.064l-0.079,-4.127c-0.005,-0.285 0.04,-0.558 0.126,-0.807Z" style="fill:#f5ed6c;"/><clipPath id="_clip2"><path d="M40.857,13.07c0,-0.915 0.564,-1.529 1.637,-1.573l109.271,-4.562c1.834,-0.077 4.467,1.536 5.876,3.599l5.105,7.475c0.701,1.026 0.968,1.972 0.833,2.673c0.135,0.242 0.216,0.529 0.222,0.837l0.061,3.22c0.004,0.211 -0.027,0.413 -0.088,0.599c0.018,0.879 -0.509,1.471 -1.529,1.513l-110.087,4.596c-1.714,0.072 -4.175,-1.435 -5.491,-3.363l-4.772,-6.986c-0.51,-0.747 -0.774,-1.447 -0.807,-2.03c-0.17,-0.309 -0.271,-0.673 -0.278,-1.064l-0.079,-4.127c-0.005,-0.285 0.04,-0.558 0.126,-0.807Z"/></clipPath><g clip-path="url(#_clip2)"><path d="M49.31,23.443c0.001,-0.883 0.565,-1.475 1.638,-1.519l109.273,-4.472c1.834,-0.075 4.466,1.478 5.873,3.466l5.101,7.204c0.7,0.989 0.966,1.901 0.831,2.576c0.135,0.234 0.215,0.51 0.221,0.808l0.059,3.104c0.003,0.204 -0.028,0.398 -0.089,0.578c0.018,0.847 -0.51,1.418 -1.53,1.46l-110.088,4.506c-1.715,0.07 -4.174,-1.381 -5.49,-3.239l-4.766,-6.733c-0.51,-0.719 -0.773,-1.395 -0.806,-1.957c-0.169,-0.297 -0.27,-0.648 -0.278,-1.025l-0.075,-3.979c-0.005,-0.275 0.04,-0.538 0.126,-0.778Z" style="fill:#ddd45a;"/></g><g id="Layer1"><path d="M106.205,20.168l-10.181,-11.093l14.607,-0.658l10.267,10.39l1.248,29.425l-14.28,0.745l-1.661,-28.809Z" style="fill:#455443;"/></g></g><g id="sushi1" serif:id="sushi"><path d="M131.713,27.594c1.262,-0.948 2.82,-1.543 4.526,-1.627l101.164,-4.96c4.476,-0.22 8.292,3.161 8.516,7.546l0.812,15.887c0.224,4.384 -3.228,8.122 -7.704,8.341l-101.164,4.961c-2.599,0.127 -4.976,-0.96 -6.556,-2.752c-0.077,-0.082 -0.15,-0.169 -0.219,-0.26c-0.202,-0.249 -0.389,-0.511 -0.56,-0.784l-2.233,-3.141c-0.056,-0.08 -0.109,-0.161 -0.157,-0.244c-0.3,-0.311 -0.484,-0.731 -0.484,-1.193l0,-20.034c0,-0.961 0.796,-1.74 1.776,-1.74l2.283,0Z" style="fill:#fbfbfb;"/><clipPath id="_clip3"><path d="M131.713,27.594c1.262,-0.948 2.82,-1.543 4.526,-1.627l101.164,-4.96c4.476,-0.22 8.292,3.161 8.516,7.546l0.812,15.887c0.224,4.384 -3.228,8.122 -7.704,8.341l-101.164,4.961c-2.599,0.127 -4.976,-0.96 -6.556,-2.752c-0.077,-0.082 -0.15,-0.169 -0.219,-0.26c-0.202,-0.249 -0.389,-0.511 -0.56,-0.784l-2.233,-3.141c-0.056,-0.08 -0.109,-0.161 -0.157,-0.244c-0.3,-0.311 -0.484,-0.731 -0.484,-1.193l0,-20.034c0,-0.961 0.796,-1.74 1.776,-1.74l2.283,0Z"/></clipPath><g clip-path="url(#_clip3)"><path d="M138.728,29.477c1.217,-1.218 2.719,-1.983 4.364,-2.091l97.54,-6.376c4.315,-0.283 7.994,4.064 8.211,9.7l0.782,20.422c0.216,5.636 -3.112,10.44 -7.427,10.722l-97.54,6.377c-2.506,0.164 -4.798,-1.234 -6.321,-3.538c-0.074,-0.105 -0.145,-0.216 -0.211,-0.333c-0.195,-0.321 -0.375,-0.658 -0.54,-1.009l-2.153,-4.038c-0.055,-0.102 -0.105,-0.206 -0.152,-0.312c-0.289,-0.401 -0.466,-0.941 -0.466,-1.534l0,-25.754c0,-1.234 0.767,-2.236 1.712,-2.236l2.201,0Z" style="fill:#e2e2e2;"/></g><g><ellipse cx="146.689" cy="45.094" rx="4.804" ry="4.472" style="fill:#383838;"/><ellipse cx="145.836" cy="46.432" rx="0.457" ry="0.514" style="fill:#d2d2d2;"/><circle cx="144.069" cy="43.784" r="1.31" style="fill:#dcdcdc;"/></g><g><ellipse cx="179.078" cy="44.79" rx="4.804" ry="4.472" style="fill:#383838;"/><ellipse cx="178.225" cy="46.128" rx="0.457" ry="0.514" style="fill:#d2d2d2;"/><circle cx="176.457" cy="43.48" r="1.31" style="fill:#dcdcdc;"/></g><path d="M159.569,46c0.73,1.191 1.943,1.905 3.241,1.909c1.298,0.004 2.515,-0.703 3.253,-1.889l-6.494,-0.02Z" style="fill:#4b4b4b;"/><ellipse cx="142.54" cy="51.145" rx="4.149" ry="1.579" style="fill:#fea9ce;"/><ellipse cx="183.226" cy="50.841" rx="4.149" ry="1.579" style="fill:#fea9ce;"/><path d="M125.393,19.404c0,-0.915 0.564,-1.528 1.637,-1.573l109.271,-4.562c1.834,-0.077 4.467,1.536 5.876,3.599l5.106,7.475c0.701,1.026 0.967,1.972 0.832,2.673c0.136,0.242 0.216,0.529 0.222,0.837l0.061,3.22c0.004,0.211 -0.027,0.413 -0.088,0.599c0.018,0.879 -0.509,1.471 -1.529,1.513l-110.087,4.596c-1.714,0.072 -4.175,-1.435 -5.491,-3.363l-4.772,-6.986c-0.51,-0.747 -0.774,-1.447 -0.806,-2.03c-0.17,-0.309 -0.272,-0.673 -0.279,-1.064l-0.078,-4.127c-0.006,-0.285 0.039,-0.558 0.125,-0.807Z" style="fill:#f5ed6c;"/><clipPath id="_clip4"><path d="M125.393,19.404c0,-0.915 0.564,-1.528 1.637,-1.573l109.271,-4.562c1.834,-0.077 4.467,1.536 5.876,3.599l5.106,7.475c0.701,1.026 0.967,1.972 0.832,2.673c0.136,0.242 0.216,0.529 0.222,0.837l0.061,3.22c0.004,0.211 -0.027,0.413 -0.088,0.599c0.018,0.879 -0.509,1.471 -1.529,1.513l-110.087,4.596c-1.714,0.072 -4.175,-1.435 -5.491,-3.363l-4.772,-6.986c-0.51,-0.747 -0.774,-1.447 -0.806,-2.03c-0.17,-0.309 -0.272,-0.673 -0.279,-1.064l-0.078,-4.127c-0.006,-0.285 0.039,-0.558 0.125,-0.807Z"/></clipPath><g clip-path="url(#_clip4)"><path d="M133.846,29.777c0.001,-0.883 0.565,-1.475 1.639,-1.519l109.272,-4.472c1.834,-0.075 4.466,1.478 5.873,3.466l5.101,7.204c0.7,0.989 0.966,1.901 0.831,2.576c0.135,0.234 0.215,0.51 0.221,0.808l0.059,3.104c0.004,0.204 -0.028,0.398 -0.088,0.578c0.017,0.847 -0.511,1.418 -1.531,1.46l-110.088,4.506c-1.714,0.07 -4.174,-1.381 -5.489,-3.239l-4.767,-6.733c-0.509,-0.719 -0.773,-1.395 -0.805,-1.957c-0.17,-0.297 -0.271,-0.648 -0.278,-1.025l-0.076,-3.979c-0.005,-0.275 0.04,-0.538 0.126,-0.778Z" style="fill:#ddd45a;"/></g><g id="Layer11" serif:id="Layer1"><path d="M190.741,26.502l-10.181,-11.093l14.608,-0.658l10.267,10.39l1.248,29.425l-14.28,0.745l-1.662,-28.809Z" style="fill:#455443;"/></g></g></g></svg>