<?xml version="1.0" encoding="UTF-8" standalone="no"?><!DOCTYPE svg PUBLIC "-//W3C//DTD SVG 1.1//EN" "http://www.w3.org/Graphics/SVG/1.1/DTD/svg11.dtd"><svg width="100%" height="100%" viewBox="0 0 285 117" version="1.1" xmlns="http://www.w3.org/2000/svg" xmlns:xlink="http://www.w3.org/1999/xlink" xml:space="preserve" xmlns:serif="http://www.serif.com/" style="fill-rule:evenodd;clip-rule:evenodd;stroke-linecap:round;stroke-linejoin:round;stroke-miterlimit:1.5;"><g id="orange-sushi"><g id="plate"><ellipse cx="141.92" cy="80.973" rx="140.212" ry="34.116" style="fill:#e1d7cd;"/><ellipse cx="141.875" cy="78.82" rx="140.212" ry="36.269" style="fill:#e1d7cd;"/><ellipse cx="141.875" cy="75.656" rx="140.212" ry="34.116" style="fill:#e4ab78;"/><ellipse cx="144.632" cy="73.945" rx="113.886" ry="23.219" style="fill:#e1d7cd;"/></g><g id="sushi"><path d="M112.314,67.965l0,-51.106l87.82,0l0,51.136c0.005,0.044 0.008,0.089 0.008,0.133c0,0.044 -0.003,0.088 -0.008,0.132l0,0.13l-0.022,0c-0.859,3.775 -20.196,6.798 -43.89,6.798c-23.693,0 -43.03,-3.023 -43.889,-6.798l-0.019,0l0,-0.099c-0.007,-0.054 -0.011,-0.109 -0.011,-0.163c0,-0.055 0.004,-0.109 0.011,-0.163Z" style="fill:#739762;"/><clipPath id="_clip1"><path d="M112.314,67.965l0,-51.106l87.82,0l0,51.136c0.005,0.044 0.008,0.089 0.008,0.133c0,0.044 -0.003,0.088 -0.008,0.132l0,0.13l-0.022,0c-0.859,3.775 -20.196,6.798 -43.89,6.798c-23.693,0 -43.03,-3.023 -43.889,-6.798l-0.019,0l0,-0.099c-0.007,-0.054 -0.011,-0.109 -0.011,-0.163c0,-0.055 0.004,-0.109 0.011,-0.163Z"/></clipPath><g clip-path="url(#_clip1)"><rect x="191.839" y="0.3" width="37.496" height="86.382" style="fill:#648754;"/><rect x="76.849" y="-3.596" width="37.496" height="86.382" style="fill:#648754;"/></g><ellipse cx="156.222" cy="16.859" rx="43.92" ry="8.966" style="fill:#fff;stroke:#8a8a8a;stroke-width:1px;"/><g id="eye"><ellipse cx="136.057" cy="60.835" rx="5.591" ry="5.419" style="fill:#40433f;"/><circle cx="134.393" cy="59.659" r="2" style="fill:#e7fbde;"/><ellipse cx="136.393" cy="63.159" rx="0.668" ry="0.5" style="fill:#e7fbde;"/></g><ellipse cx="132.897" cy="67.754" rx="3.16" ry="1.5" style="fill:#c392af;"/><g id="eye1" serif:id="eye"><ellipse cx="174.193" cy="60.835" rx="5.591" ry="5.419" style="fill:#40433f;"/><circle cx="172.529" cy="59.659" r="2" style="fill:#e7fbde;"/><ellipse cx="174.529" cy="63.159" rx="0.668" ry="0.5" style="fill:#e7fbde;"/></g><ellipse cx="177.353" cy="67.754" rx="3.16" ry="1.5" style="fill:#c392af;"/><ellipse cx="156.222" cy="16.859" rx="25.804" ry="4" style="fill:#eca56f;"/><clipPath id="_clip2"><ellipse cx="156.222" cy="16.859" rx="25.804" ry="4"/></clipPath><g clip-path="url(#_clip2)"><path d="M144.738,12.859l5,8" style="fill:none;stroke:#eee;stroke-width:1px;"/><path d="M139.187,13.856l3.404,6.399" style="fill:none;stroke:#eee;stroke-width:1px;"/><path d="M151.738,12.859l4.484,8" style="fill:none;stroke:#eee;stroke-width:1px;"/><path d="M158.738,12.859l4,8" style="fill:none;stroke:#eee;stroke-width:1px;"/><path d="M170.657,13.544c-2.639,-0.24 -7.933,-1.904 -7.919,-0.685c0.013,1.219 4.785,7.091 8,8c3.215,0.909 9.407,-1.621 11.288,-2.545c0.898,-0.441 0.549,-2.334 0,-3c-0.548,-0.667 -2.156,-0.824 -3.288,-1c-1.895,-0.295 -5.414,-0.528 -8.081,-0.77Z" style="fill:#afc169;"/><path d="M162.738,13.204c0,1.136 3.684,5.678 5.504,6.814c1.513,0.944 5.415,1.136 5.415,0c0,-1.136 -3.595,-5.678 -5.415,-6.814c-1.538,-0.96 -5.504,-1.136 -5.504,0Z" style="fill:#799020;"/></g><path d="M151.68,63.802c0.023,2.209 2.076,3.978 4.585,3.951c2.509,-0.026 4.524,-1.839 4.5,-4.048l-9.085,0.097Z" style="fill:#e3e6d9;"/></g><g id="sushi1" serif:id="sushi"><path d="M172.769,81.072l0,-51.106l87.82,0l0,51.137c0.005,0.044 0.007,0.088 0.007,0.132c0,0.044 -0.002,0.088 -0.007,0.132l0,0.13l-0.022,0c-0.86,3.776 -20.197,6.798 -43.89,6.798c-23.694,0 -43.03,-3.022 -43.89,-6.798l-0.018,0l0,-0.099c-0.008,-0.054 -0.012,-0.109 -0.012,-0.163c0,-0.055 0.004,-0.109 0.012,-0.163Z" style="fill:#739762;"/><clipPath id="_clip3"><path d="M172.769,81.072l0,-51.106l87.82,0l0,51.137c0.005,0.044 0.007,0.088 0.007,0.132c0,0.044 -0.002,0.088 -0.007,0.132l0,0.13l-0.022,0c-0.86,3.776 -20.197,6.798 -43.89,6.798c-23.694,0 -43.03,-3.022 -43.89,-6.798l-0.018,0l0,-0.099c-0.008,-0.054 -0.012,-0.109 -0.012,-0.163c0,-0.055 0.004,-0.109 0.012,-0.163Z"/></clipPath><g clip-path="url(#_clip3)"><rect x="252.293" y="13.407" width="37.496" height="86.382" style="fill:#648754;"/><rect x="137.303" y="9.511" width="37.496" height="86.382" style="fill:#648754;"/></g><ellipse cx="216.677" cy="29.966" rx="43.92" ry="8.966" style="fill:#fff;stroke:#8a8a8a;stroke-width:1px;"/><g id="eye2" serif:id="eye"><ellipse cx="196.511" cy="73.942" rx="5.591" ry="5.419" style="fill:#40433f;"/><circle cx="194.847" cy="72.766" r="2" style="fill:#e7fbde;"/><ellipse cx="196.847" cy="76.266" rx="0.668" ry="0.5" style="fill:#e7fbde;"/></g><ellipse cx="193.352" cy="80.861" rx="3.16" ry="1.5" style="fill:#c392af;"/><g id="eye3" serif:id="eye"><ellipse cx="234.648" cy="73.942" rx="5.591" ry="5.419" style="fill:#40433f;"/><circle cx="232.983" cy="72.766" r="2" style="fill:#e7fbde;"/><ellipse cx="234.983" cy="76.266" rx="0.668" ry="0.5" style="fill:#e7fbde;"/></g><ellipse cx="237.807" cy="80.861" rx="3.16" ry="1.5" style="fill:#c392af;"/><ellipse cx="216.677" cy="29.966" rx="25.804" ry="4" style="fill:#eca56f;"/><clipPath id="_clip4"><ellipse cx="216.677" cy="29.966" rx="25.804" ry="4"/></clipPath><g clip-path="url(#_clip4)"><path d="M205.192,25.966l5,8" style="fill:none;stroke:#eee;stroke-width:1px;"/><path d="M199.641,26.963l3.404,6.399" style="fill:none;stroke:#eee;stroke-width:1px;"/><path d="M212.192,25.966l4.485,8" style="fill:none;stroke:#eee;stroke-width:1px;"/><path d="M219.192,25.966l4,8" style="fill:none;stroke:#eee;stroke-width:1px;"/><path d="M231.112,26.651c-2.639,-0.24 -7.933,-1.904 -7.92,-0.685c0.013,1.219 4.785,7.091 8,8c3.215,0.909 9.407,-1.621 11.289,-2.545c0.897,-0.441 0.548,-2.333 0,-3c-0.548,-0.667 -2.157,-0.824 -3.289,-1c-1.895,-0.295 -5.414,-0.528 -8.08,-0.77Z" style="fill:#afc169;"/><path d="M223.192,26.311c0,1.136 3.684,5.679 5.504,6.814c1.513,0.944 5.415,1.136 5.415,0c0,-1.135 -3.595,-5.678 -5.415,-6.814c-1.538,-0.959 -5.504,-1.135 -5.504,0Z" style="fill:#799020;"/></g><path d="M212.134,76.91c0.024,2.209 2.077,3.978 4.585,3.951c2.509,-0.027 4.524,-1.84 4.5,-4.049l-9.085,0.098Z" style="fill:#e3e6d9;"/></g><g id="sushi2" serif:id="sushi"><path d="M28.314,75.325l0,-51.105l87.82,0l0,51.136c0.005,0.044 0.008,0.088 0.008,0.132c0,0.045 -0.003,0.089 -0.008,0.133l0,0.13l-0.022,0c-0.859,3.775 -20.196,6.797 -43.89,6.797c-23.693,0 -43.03,-3.022 -43.889,-6.797l-0.019,0l0,-0.099c-0.007,-0.055 -0.011,-0.109 -0.011,-0.164c0,-0.054 0.004,-0.109 0.011,-0.163Z" style="fill:#739762;"/><clipPath id="_clip5"><path d="M28.314,75.325l0,-51.105l87.82,0l0,51.136c0.005,0.044 0.008,0.088 0.008,0.132c0,0.045 -0.003,0.089 -0.008,0.133l0,0.13l-0.022,0c-0.859,3.775 -20.196,6.797 -43.89,6.797c-23.693,0 -43.03,-3.022 -43.889,-6.797l-0.019,0l0,-0.099c-0.007,-0.055 -0.011,-0.109 -0.011,-0.164c0,-0.054 0.004,-0.109 0.011,-0.163Z"/></clipPath><g clip-path="url(#_clip5)"><rect x="107.839" y="7.66" width="37.496" height="86.382" style="fill:#648754;"/><rect x="-7.151" y="3.764" width="37.496" height="86.382" style="fill:#648754;"/></g><ellipse cx="72.222" cy="24.22" rx="43.92" ry="8.966" style="fill:#fff;stroke:#8a8a8a;stroke-width:1px;"/><g id="eye4" serif:id="eye"><ellipse cx="52.057" cy="68.195" rx="5.591" ry="5.419" style="fill:#40433f;"/><circle cx="50.393" cy="67.019" r="2" style="fill:#e7fbde;"/><ellipse cx="52.393" cy="70.519" rx="0.668" ry="0.5" style="fill:#e7fbde;"/></g><ellipse cx="48.897" cy="75.114" rx="3.16" ry="1.5" style="fill:#c392af;"/><g id="eye5" serif:id="eye"><ellipse cx="90.193" cy="68.195" rx="5.591" ry="5.419" style="fill:#40433f;"/><circle cx="88.529" cy="67.019" r="2" style="fill:#e7fbde;"/><ellipse cx="90.529" cy="70.519" rx="0.668" ry="0.5" style="fill:#e7fbde;"/></g><ellipse cx="93.353" cy="75.114" rx="3.16" ry="1.5" style="fill:#c392af;"/><ellipse cx="72.222" cy="24.22" rx="25.804" ry="4" style="fill:#eca56f;"/><clipPath id="_clip6"><ellipse cx="72.222" cy="24.22" rx="25.804" ry="4"/></clipPath><g clip-path="url(#_clip6)"><path d="M60.738,20.22l5,8" style="fill:none;stroke:#eee;stroke-width:1px;"/><path d="M55.187,21.216l3.404,6.4" style="fill:none;stroke:#eee;stroke-width:1px;"/><path d="M67.738,20.22l4.484,8" style="fill:none;stroke:#eee;stroke-width:1px;"/><path d="M74.738,20.22l4,8" style="fill:none;stroke:#eee;stroke-width:1px;"/><path d="M86.657,20.904c-2.639,-0.24 -7.933,-1.904 -7.919,-0.684c0.013,1.219 4.785,7.09 8,8c3.215,0.909 9.407,-1.622 11.288,-2.546c0.898,-0.441 0.549,-2.333 0,-3c-0.548,-0.666 -2.156,-0.823 -3.288,-1c-1.895,-0.295 -5.414,-0.527 -8.081,-0.77Z" style="fill:#afc169;"/><path d="M78.738,20.565c0,1.135 3.684,5.678 5.504,6.814c1.513,0.944 5.415,1.135 5.415,0c0,-1.136 -3.595,-5.679 -5.415,-6.814c-1.538,-0.96 -5.504,-1.136 -5.504,0Z" style="fill:#799020;"/></g><path d="M67.68,71.163c0.023,2.209 2.076,3.978 4.585,3.951c2.509,-0.027 4.524,-1.839 4.5,-4.048l-9.085,0.097Z" style="fill:#e3e6d9;"/></g><g id="sushi3" serif:id="sushi"><path d="M97.989,86.814l0,-51.105l87.82,0l0,51.136c0.005,0.044 0.008,0.088 0.008,0.132c0,0.045 -0.003,0.089 -0.008,0.133l0,0.13l-0.022,0c-0.86,3.775 -20.196,6.797 -43.89,6.797c-23.693,0 -43.03,-3.022 -43.889,-6.797l-0.019,0l0,-0.1c-0.007,-0.054 -0.011,-0.108 -0.011,-0.163c0,-0.054 0.004,-0.109 0.011,-0.163Z" style="fill:#739762;"/><clipPath id="_clip7"><path d="M97.989,86.814l0,-51.105l87.82,0l0,51.136c0.005,0.044 0.008,0.088 0.008,0.132c0,0.045 -0.003,0.089 -0.008,0.133l0,0.13l-0.022,0c-0.86,3.775 -20.196,6.797 -43.89,6.797c-23.693,0 -43.03,-3.022 -43.889,-6.797l-0.019,0l0,-0.1c-0.007,-0.054 -0.011,-0.108 -0.011,-0.163c0,-0.054 0.004,-0.109 0.011,-0.163Z"/></clipPath><g clip-path="url(#_clip7)"><rect x="177.514" y="19.149" width="37.496" height="86.382" style="fill:#648754;"/><rect x="62.523" y="15.253" width="37.496" height="86.382" style="fill:#648754;"/></g><ellipse cx="141.897" cy="35.709" rx="43.92" ry="8.966" style="fill:#fff;stroke:#898989;stroke-width:1px;"/><g id="eye6" serif:id="eye"><ellipse cx="121.732" cy="79.684" rx="5.591" ry="5.419" style="fill:#40433f;"/><circle cx="120.068" cy="78.508" r="2" style="fill:#e7fbde;"/><ellipse cx="122.068" cy="82.008" rx="0.668" ry="0.5" style="fill:#e7fbde;"/></g><ellipse cx="118.572" cy="86.603" rx="3.16" ry="1.5" style="fill:#c392af;"/><g id="eye7" serif:id="eye"><ellipse cx="159.868" cy="79.684" rx="5.591" ry="5.419" style="fill:#40433f;"/><circle cx="158.204" cy="78.508" r="2" style="fill:#e7fbde;"/><ellipse cx="160.204" cy="82.008" rx="0.668" ry="0.5" style="fill:#e7fbde;"/></g><ellipse cx="163.028" cy="86.603" rx="3.16" ry="1.5" style="fill:#c392af;"/><ellipse cx="141.897" cy="35.709" rx="25.804" ry="4" style="fill:#eca56f;"/><clipPath id="_clip8"><ellipse cx="141.897" cy="35.709" rx="25.804" ry="4"/></clipPath><g clip-path="url(#_clip8)"><path d="M130.413,31.709l5,8" style="fill:none;stroke:#eee;stroke-width:1px;"/><path d="M124.862,32.705l3.404,6.4" style="fill:none;stroke:#eee;stroke-width:1px;"/><path d="M137.413,31.709l4.484,8" style="fill:none;stroke:#eee;stroke-width:1px;"/><path d="M144.413,31.709l4,8" style="fill:none;stroke:#eee;stroke-width:1px;"/><path d="M156.332,32.393c-2.639,-0.24 -7.933,-1.904 -7.919,-0.684c0.013,1.219 4.785,7.09 8,8c3.214,0.909 9.407,-1.622 11.288,-2.546c0.898,-0.441 0.548,-2.333 0,-3c-0.548,-0.666 -2.156,-0.824 -3.288,-1c-1.895,-0.295 -5.414,-0.527 -8.081,-0.77Z" style="fill:#afc169;"/><path d="M148.413,32.054c0,1.135 3.684,5.678 5.504,6.814c1.513,0.944 5.415,1.135 5.415,0c0,-1.136 -3.595,-5.679 -5.415,-6.814c-1.538,-0.96 -5.504,-1.136 -5.504,0Z" style="fill:#799020;"/></g><path d="M137.354,82.652c0.024,2.209 2.077,3.978 4.586,3.951c2.509,-0.027 4.524,-1.839 4.5,-4.048l-9.086,0.097Z" style="fill:#e3e6d9;"/></g></g></svg>